<svg width="56" height="56" viewBox="0 0 56 56" fill="none" xmlns="http://www.w3.org/2000/svg">
<circle cx="27.6956" cy="27.6957" r="26" fill="white" stroke="url(#paint0_linear_366_634)" stroke-width="3.3913"/>
<path d="M36.9337 45.2581C36.9084 45.2777 36.8829 45.2972 36.8574 45.3167C31.7043 49.2538 23.7913 49.2538 18.6372 45.3176C18.6113 45.2978 18.5855 45.278 18.5598 45.2581C14.6799 42.2569 12.5489 37.747 12.9308 33.3427C13.4028 27.8963 17.3723 23.1672 21.0422 18.6463C23.9465 15.0678 26.8323 11.179 27.747 7.00879C28.6612 11.179 31.5476 15.0678 34.4519 18.6463C38.1212 23.1671 42.0912 27.8963 42.5632 33.3427C42.9445 37.747 40.8136 42.2569 36.9337 45.2581Z" fill="url(#paint1_linear_366_634)"/>
<path d="M27.7551 7.00879C27.9959 8.10801 28.3742 9.18743 28.8528 10.2471C27.5522 13.3684 25.3246 16.3169 23.0852 19.0781C19.4584 23.5492 15.5351 28.2269 15.0686 33.6133C14.6914 37.9688 16.7971 42.4285 20.6311 45.3965C20.6565 45.4161 20.6827 45.4365 20.7083 45.4561C22.8858 47.1202 25.5619 48.0703 28.3098 48.3115C24.859 48.4293 21.3641 47.4482 18.6399 45.3662C18.6141 45.3465 18.5884 45.3265 18.5627 45.3066C14.6808 42.3017 12.5488 37.7859 12.9309 33.376C13.4033 27.9228 17.3743 23.1877 21.0461 18.6611C23.9521 15.0781 26.8398 11.1843 27.7551 7.00879Z" fill="#2563EB"/>
<circle cx="28.9391" cy="33.867" r="10.4" stroke="white" stroke-width="1.58261"/>
<circle cx="28.9496" cy="33.8504" r="10.4" stroke="url(#paint2_linear_366_634)" stroke-width="1.58261"/>
<path d="M32.8799 28.104V31.6332L32.4232 32.5728L31.6653 28.7113C31.9436 28.343 32.3839 28.104 32.8799 28.104Z" fill="#0043FF"/>
<path d="M26.6497 33.8611V32.8135C26.6497 32.3535 26.8526 31.9426 27.1735 31.6627L27.9837 34.5748C27.8299 34.4913 27.6661 34.4226 27.4959 34.3719C27.2897 34.0985 26.9869 33.9151 26.6497 33.8611Z" fill="#033AD4"/>
<path d="M28.177 31.2863V34.6894C28.1443 34.6697 28.1263 34.6583 28.1263 34.6583C28.0805 34.6288 28.033 34.601 27.9839 34.5748L27.1736 31.6627C27.4421 31.4287 27.7924 31.2863 28.177 31.2863Z" fill="#0043FF"/>
<path d="M29.2351 30.5422L30.5299 34.539V29.8228C29.9833 29.8227 29.5051 30.1107 29.2351 30.5422Z" fill="#0043FF"/>
<path d="M25.3682 34.3915C25.2912 34.4963 25.229 34.6141 25.1865 34.7418C24.8804 34.9595 24.6234 35.2427 24.4335 35.5701L24.2993 35.8009V32.9002C24.2993 32.5843 24.3959 32.2897 24.5612 32.0458L25.3682 34.3915Z" fill="#033AD4"/>
<path d="M25.8215 31.3779V33.997C25.6414 34.0903 25.4859 34.2262 25.3681 34.3915L24.561 32.0458C24.8344 31.6431 25.2961 31.3779 25.8215 31.3779Z" fill="#0043FF"/>
<path d="M32.4233 32.5729V32.5746L31.3577 34.7778V29.6265C31.3577 29.2827 31.4739 28.9668 31.6654 28.7114L32.4233 32.5729Z" fill="#033AD4"/>
<path d="M30.5293 34.5388V35.0905C30.4654 35.0954 30.4016 35.1052 30.3411 35.1183L30.5293 34.5388Z" fill="#0043FF"/>
<path d="M30.5294 34.5388L30.3412 35.1183C30.0449 35.1854 29.7863 35.3491 29.6013 35.5815C29.598 35.5799 29.3181 35.4047 29.0022 35.2067V31.3501C29.0022 31.0538 29.089 30.7772 29.2346 30.5415L30.5294 34.5388Z" fill="#033AD4"/>
<path d="M35.1059 30.5816C35.1059 31.0595 34.7185 31.4485 34.2391 31.4485C34.2089 31.4485 34.1803 31.447 34.1501 31.444L32.1541 35.5716C32.0004 35.8867 31.7742 36.155 31.4999 36.3616C31.5014 36.3782 31.5029 36.3947 31.5029 36.4098C31.5029 36.8892 31.114 37.2767 30.6361 37.2767C30.2893 37.2767 29.9923 37.0732 29.8536 36.7807C29.5597 36.7354 29.2762 36.6329 29.02 36.4716L27.5637 35.558C27.4702 35.4992 27.3722 35.451 27.2712 35.4133C27.1657 35.7736 26.834 36.0359 26.4406 36.0359C26.1451 36.0359 25.8858 35.8897 25.729 35.6636C25.5782 35.7842 25.4501 35.9319 25.3491 36.1038L24.4386 37.6686L24.2486 37.9958L23.9757 38.4646C24.0662 38.6018 24.1204 38.7661 24.1204 38.9441C24.1204 38.9847 24.1174 39.0239 24.1114 39.0632C24.0933 39.1928 24.0466 39.3134 23.9757 39.419C23.8234 39.6557 23.5566 39.8109 23.2536 39.8109C22.7742 39.8109 22.3867 39.422 22.3867 38.9441C22.3867 38.739 22.4576 38.5506 22.5767 38.4029C22.6581 38.3004 22.7621 38.2189 22.8797 38.1632C22.9928 38.1074 23.1194 38.0772 23.2536 38.0772C23.3335 38.0772 23.4104 38.0893 23.4843 38.1104L23.8099 37.5511L24.2863 36.734L24.829 35.8008C25.016 35.4782 25.2768 35.2144 25.5858 35.0274C25.6537 34.6174 26.0094 34.3038 26.4406 34.3038C26.7738 34.3038 27.0618 34.4922 27.208 34.7681C27.4431 34.8224 27.6723 34.9144 27.8834 35.047L29.3412 35.9606C29.4859 36.0525 29.6442 36.1174 29.807 36.1581C29.9156 35.8023 30.2457 35.5445 30.6362 35.5445C30.8729 35.5445 31.0869 35.6395 31.2437 35.7933C31.3945 35.6576 31.5211 35.4947 31.61 35.3078L33.6105 31.1757C33.4643 31.0219 33.3723 30.8124 33.3723 30.5817C33.3723 30.1038 33.7612 29.7148 34.2392 29.7148C34.7185 29.7148 35.1059 30.1038 35.1059 30.5816Z" fill="white"/>
<defs>
<linearGradient id="paint0_linear_366_634" x1="27.6956" y1="1.69568" x2="27.6956" y2="53.6957" gradientUnits="userSpaceOnUse">
<stop stop-color="#2563EB"/>
<stop offset="1" stop-color="#153885"/>
</linearGradient>
<linearGradient id="paint1_linear_366_634" x1="18.4261" y1="14.3566" x2="40.7522" y2="44.3697" gradientUnits="userSpaceOnUse">
<stop stop-color="#040812"/>
<stop offset="1" stop-color="#132549"/>
</linearGradient>
<linearGradient id="paint2_linear_366_634" x1="28.9496" y1="22.6591" x2="28.9496" y2="45.0417" gradientUnits="userSpaceOnUse">
<stop stop-color="#FFDA7C"/>
<stop offset="1" stop-color="#B78402"/>
</linearGradient>
</defs>
</svg>
