<svg width="44" height="40" viewBox="0 0 44 40" fill="none" xmlns="http://www.w3.org/2000/svg">
<path d="M35.8534 0V12.0586L34.293 15.269L31.7033 2.07504C32.6542 0.8167 34.1587 0 35.8534 0Z" fill="#3774FA"/>
<path d="M14.5663 19.671V16.0914C14.5663 14.5197 15.2598 13.116 16.356 12.1595L19.1246 22.1096C18.5989 21.8243 18.0395 21.5896 17.4579 21.4161C16.7533 20.4821 15.7186 19.8555 14.5663 19.671Z" fill="#2563EB"/>
<path d="M19.7846 10.873V22.501C19.6727 22.4338 19.6112 22.3947 19.6112 22.3947C19.4547 22.2941 19.2924 22.1989 19.1246 22.1095L16.3561 12.1595C17.2734 11.3596 18.4704 10.873 19.7846 10.873Z" fill="#3774FA"/>
<path d="M23.3998 8.33082L27.8238 21.9873V5.87262C25.9562 5.87243 24.3224 6.85635 23.3998 8.33082Z" fill="#3774FA"/>
<path d="M10.1871 21.483C9.92411 21.8409 9.71156 22.2437 9.56616 22.6798C8.52016 23.4238 7.64217 24.3913 6.99342 25.5099L6.53485 26.2986V16.3876C6.53485 15.3081 6.86477 14.3015 7.42983 13.468L10.1871 21.483Z" fill="#2563EB"/>
<path d="M11.7364 11.1863V20.1351C11.1211 20.4539 10.5897 20.9182 10.187 21.4831L7.42957 13.4682C8.36368 12.0923 9.94102 11.1863 11.7364 11.1863Z" fill="#3774FA"/>
<path d="M34.2929 15.2692V15.2748L30.6518 22.803V5.20166C30.6518 4.02702 31.0489 2.94774 31.7032 2.07518L34.2929 15.2692Z" fill="#2563EB"/>
<path d="M41.5661 31.833C41.5661 31.8665 41.5661 31.9002 41.555 31.9337C41.3983 34.8028 34.3231 37.1128 25.609 37.1128C16.7999 37.1128 9.65759 34.747 9.65759 31.8328C9.65759 31.5868 9.70799 31.3462 9.80865 31.1113C9.8869 30.9155 9.99879 30.7253 10.1385 30.5408C10.6532 29.8584 11.5759 29.2321 12.8065 28.6896C13.0079 28.5944 13.2204 28.5051 13.4384 28.4267C13.4497 28.421 13.4665 28.4156 13.4776 28.4099C13.4665 28.4156 13.4552 28.4267 13.4495 28.4324C12.8734 28.8741 12.8063 29.7411 13.2929 30.2892C14.915 32.1182 20.027 33.4548 26.0843 33.4548C31.4816 33.4548 36.1183 32.3977 38.2157 30.8707C38.7919 30.4569 38.9149 29.6122 38.4563 29.0641C38.2885 28.8572 38.076 28.6614 37.8243 28.4712C37.7963 28.4489 37.7628 28.4265 37.7348 28.4041C37.7739 28.4208 37.813 28.4321 37.8467 28.4489C38.4228 28.6781 38.9429 28.9187 39.4017 29.1815C40.0728 29.5618 40.6042 29.9702 40.9677 30.4007C41.3592 30.8544 41.5661 31.3353 41.5661 31.833Z" fill="url(#paint0_linear_121_149)"/>
<path d="M40.9677 30.4013C39.8715 33.237 33.2269 35.4126 25.1895 35.4126C17.8458 35.4126 11.6598 33.5949 9.80859 31.1115C9.88684 30.9157 9.99874 30.7255 10.1385 30.541C10.6531 29.8586 11.5759 29.2323 12.8064 28.6898C13.0078 28.5946 13.2204 28.5053 13.4384 28.4268C13.4384 28.4268 13.444 28.4268 13.4497 28.4325C12.8735 28.8743 12.8064 29.7412 13.293 30.2893C14.9151 32.1184 20.0271 33.455 26.0845 33.455C31.4817 33.455 36.1184 32.3979 38.2159 30.8709C38.792 30.4571 38.915 29.6124 38.4564 29.0643C38.2887 28.8574 38.0761 28.6616 37.8244 28.4714C37.8355 28.4658 37.8412 28.4601 37.8468 28.449C38.423 28.6783 38.943 28.9189 39.4018 29.1817C40.0727 29.5624 40.6041 29.9705 40.9677 30.4013Z" fill="url(#paint1_linear_121_149)"/>
<path d="M27.8219 21.9863L27.1788 23.9663C26.1665 24.1956 25.2828 24.7549 24.6507 25.549C24.6394 25.5434 23.6831 24.9449 22.6036 24.2683V11.0911C22.6036 10.0788 22.9001 9.13344 23.3978 8.32819L27.8219 21.9863Z" fill="#2563EB"/>
<path d="M43.4593 8.46532C43.4593 10.0981 42.1355 11.4272 40.4974 11.4272C40.3943 11.4272 40.2965 11.4221 40.1934 11.4118L33.3735 25.5152C32.8482 26.5918 32.0754 27.5085 31.1381 28.2143C31.1431 28.2709 31.1484 28.3275 31.1484 28.3791C31.1484 30.0171 29.8195 31.341 28.1865 31.341C27.0016 31.341 25.9869 30.6456 25.5131 29.6463C24.5087 29.4917 23.5402 29.1414 22.6646 28.5903L17.6888 25.4687C17.3695 25.2678 17.0346 25.103 16.6895 24.9742C16.3289 26.2052 15.1956 27.1015 13.8514 27.1015C12.8417 27.1015 11.9557 26.6019 11.4201 25.8293C10.9049 26.2414 10.4672 26.7462 10.1221 27.3335L7.01078 32.6802L6.36168 33.798L5.4293 35.4C5.73834 35.8688 5.9238 36.4302 5.9238 37.0381C5.9238 37.1771 5.91345 37.311 5.89295 37.4451C5.83107 37.8881 5.67138 38.3002 5.4293 38.6608C4.90903 39.4696 3.99735 40 2.9619 40C1.3238 40 0 38.6712 0 37.0381C0 36.3376 0.242073 35.6936 0.649106 35.1889C0.927297 34.8387 1.2826 34.5606 1.68456 34.37C2.0709 34.1794 2.50351 34.0764 2.96208 34.0764C3.23501 34.0764 3.49777 34.1176 3.7502 34.1896L4.86276 32.2786L6.49052 29.4868L8.34493 26.2982C8.9837 25.1958 9.87488 24.2944 10.9308 23.6557C11.1625 22.2546 12.3782 21.1832 13.8515 21.1832C14.9899 21.1832 15.9738 21.827 16.4733 22.7697C17.2769 22.9552 18.0599 23.2695 18.7811 23.7226L23.7621 26.8442C24.2566 27.1583 24.7976 27.3799 25.3538 27.5189C25.7247 26.3032 26.8527 25.4225 28.1868 25.4225C28.9957 25.4225 29.727 25.7469 30.2627 26.2724C30.7778 25.8088 31.2104 25.2524 31.5144 24.6138L38.3497 10.495C37.8501 9.96966 37.5358 9.25361 37.5358 8.46546C37.5358 6.83265 38.8647 5.50359 40.4977 5.50359C42.1355 5.5034 43.4593 6.83246 43.4593 8.46532Z" fill="white"/>
<defs>
<linearGradient id="paint0_linear_121_149" x1="9.65759" y1="32.7588" x2="41.5661" y2="32.7588" gradientUnits="userSpaceOnUse">
<stop stop-color="#2563EB"/>
<stop offset="1" stop-color="#3071FF"/>
</linearGradient>
<linearGradient id="paint1_linear_121_149" x1="25.3822" y1="30.8186" x2="25.0151" y2="34.6639" gradientUnits="userSpaceOnUse">
<stop stop-color="#2563EB"/>
<stop offset="1" stop-color="#3774FA"/>
</linearGradient>
</defs>
</svg>
