<svg width="214" height="58" viewBox="0 0 214 58" fill="none" xmlns="http://www.w3.org/2000/svg">
<path d="M76.9882 24.2386V29.2527H83.7214V32.4331H76.9882V37.7337H84.581V41H72.977V20.9723H84.581V24.2386H76.9882ZM96.9938 41L93.7274 36.0719L90.8336 41H86.5358L91.7218 33.0348L86.4785 25.1269H91.0055L94.2432 30.0263L97.1657 25.1269H101.463L96.2488 33.0348L101.521 41H96.9938ZM102.668 33.0634C102.668 31.4207 103.002 29.9881 103.671 28.7656C104.339 27.5241 105.266 26.569 106.45 25.9005C107.634 25.2128 108.99 24.869 110.519 24.869C112.486 24.869 114.11 25.3656 115.389 26.3589C116.688 27.333 117.557 28.7083 117.997 30.4848H113.67C113.441 29.7971 113.049 29.2623 112.496 28.8802C111.961 28.4791 111.292 28.2786 110.49 28.2786C109.344 28.2786 108.437 28.6988 107.768 29.5392C107.099 30.3606 106.765 31.5353 106.765 33.0634C106.765 34.5724 107.099 35.7472 107.768 36.5876C108.437 37.409 109.344 37.8196 110.49 37.8196C112.114 37.8196 113.174 37.0938 113.67 35.6421H117.997C117.557 37.3612 116.688 38.7269 115.389 39.7393C114.091 40.7517 112.467 41.2579 110.519 41.2579C108.99 41.2579 107.634 40.9236 106.45 40.2551C105.266 39.5674 104.339 38.6123 103.671 37.3899C103.002 36.1483 102.668 34.7061 102.668 33.0634ZM129.875 24.8976C131.078 24.8976 132.148 25.1651 133.084 25.6999C134.02 26.2156 134.746 26.9892 135.261 28.0207C135.796 29.0331 136.064 30.2555 136.064 31.6881V41H132.052V32.2325C132.052 30.9718 131.737 30.0072 131.107 29.3387C130.476 28.651 129.617 28.3072 128.528 28.3072C127.42 28.3072 126.542 28.651 125.892 29.3387C125.262 30.0072 124.947 30.9718 124.947 32.2325V41H120.935V19.7976H124.947V27.1038C125.462 26.4162 126.15 25.8814 127.01 25.4993C127.869 25.0982 128.824 24.8976 129.875 24.8976ZM138.847 33.0061C138.847 31.4016 139.162 29.9786 139.792 28.737C140.442 27.4954 141.311 26.5403 142.399 25.8718C143.507 25.2033 144.739 24.869 146.095 24.869C147.28 24.869 148.311 25.1077 149.19 25.5853C150.088 26.0628 150.804 26.6645 151.339 27.3903V25.1269H155.379V41H151.339V38.6792C150.823 39.4241 150.107 40.0449 149.19 40.5416C148.292 41.0191 147.251 41.2579 146.067 41.2579C144.73 41.2579 143.507 40.914 142.399 40.2264C141.311 39.5388 140.442 38.5741 139.792 37.3326C139.162 36.0719 138.847 34.6297 138.847 33.0061ZM151.339 33.0634C151.339 32.0893 151.148 31.2584 150.766 30.5707C150.384 29.864 149.868 29.3291 149.219 28.9662C148.569 28.5842 147.872 28.3932 147.127 28.3932C146.382 28.3932 145.694 28.5746 145.064 28.9376C144.434 29.3005 143.918 29.8353 143.517 30.5421C143.135 31.2297 142.944 32.0511 142.944 33.0061C142.944 33.9612 143.135 34.8016 143.517 35.5275C143.918 36.2342 144.434 36.7786 145.064 37.1606C145.713 37.5427 146.401 37.7337 147.127 37.7337C147.872 37.7337 148.569 37.5522 149.219 37.1893C149.868 36.8073 150.384 36.2724 150.766 35.5848C151.148 34.878 151.339 34.0376 151.339 33.0634ZM168.093 24.8976C169.984 24.8976 171.512 25.4993 172.677 26.7027C173.842 27.887 174.425 29.5488 174.425 31.6881V41H170.413V32.2325C170.413 30.9718 170.098 30.0072 169.468 29.3387C168.837 28.651 167.978 28.3072 166.889 28.3072C165.781 28.3072 164.903 28.651 164.253 29.3387C163.623 30.0072 163.308 30.9718 163.308 32.2325V41H159.296V25.1269H163.308V27.1038C163.843 26.4162 164.521 25.8814 165.342 25.4993C166.182 25.0982 167.099 24.8976 168.093 24.8976ZM184.457 24.869C185.641 24.869 186.682 25.1077 187.58 25.5853C188.477 26.0437 189.184 26.6454 189.7 27.3903V25.1269H193.74V41.1146C193.74 42.5854 193.444 43.8938 192.852 45.0399C192.259 46.2051 191.371 47.122 190.187 47.7905C189.003 48.4781 187.57 48.822 185.889 48.822C183.635 48.822 181.782 48.2967 180.331 47.2461C178.898 46.1955 178.086 44.7629 177.895 42.9483H181.878C182.088 43.6742 182.537 44.2472 183.225 44.6674C183.931 45.1068 184.781 45.3264 185.775 45.3264C186.94 45.3264 187.885 44.9731 188.611 44.2663C189.337 43.5787 189.7 42.5281 189.7 41.1146V38.6505C189.184 39.3955 188.468 40.0163 187.551 40.5129C186.653 41.0096 185.622 41.2579 184.457 41.2579C183.119 41.2579 181.897 40.914 180.789 40.2264C179.681 39.5388 178.803 38.5741 178.153 37.3326C177.523 36.0719 177.208 34.6297 177.208 33.0061C177.208 31.4016 177.523 29.9786 178.153 28.737C178.803 27.4954 179.672 26.5403 180.76 25.8718C181.868 25.2033 183.1 24.869 184.457 24.869ZM189.7 33.0634C189.7 32.0893 189.509 31.2584 189.127 30.5707C188.745 29.864 188.229 29.3291 187.58 28.9662C186.93 28.5842 186.233 28.3932 185.488 28.3932C184.743 28.3932 184.055 28.5746 183.425 28.9376C182.795 29.3005 182.279 29.8353 181.878 30.5421C181.496 31.2297 181.305 32.0511 181.305 33.0061C181.305 33.9612 181.496 34.8016 181.878 35.5275C182.279 36.2342 182.795 36.7786 183.425 37.1606C184.075 37.5427 184.762 37.7337 185.488 37.7337C186.233 37.7337 186.93 37.5522 187.58 37.1893C188.229 36.8073 188.745 36.2724 189.127 35.5848C189.509 34.878 189.7 34.0376 189.7 33.0634ZM212.413 32.7196C212.413 33.2926 212.375 33.8084 212.299 34.2668H200.695C200.79 35.4129 201.191 36.3106 201.898 36.9601C202.605 37.6095 203.474 37.9342 204.505 37.9342C205.995 37.9342 207.055 37.2944 207.686 36.0146H212.012C211.554 37.5427 210.675 38.8034 209.376 39.7966C208.077 40.7708 206.482 41.2579 204.591 41.2579C203.063 41.2579 201.688 40.9236 200.465 40.2551C199.262 39.5674 198.316 38.6028 197.629 37.3612C196.96 36.1196 196.626 34.687 196.626 33.0634C196.626 31.4207 196.96 29.9786 197.629 28.737C198.297 27.4954 199.233 26.5403 200.437 25.8718C201.64 25.2033 203.025 24.869 204.591 24.869C206.1 24.869 207.447 25.1937 208.631 25.8431C209.835 26.4926 210.761 27.419 211.41 28.6224C212.079 29.8067 212.413 31.1724 212.413 32.7196ZM208.259 31.5735C208.24 30.5421 207.867 29.7207 207.141 29.1095C206.415 28.4791 205.527 28.164 204.477 28.164C203.483 28.164 202.643 28.4696 201.955 29.0808C201.287 29.673 200.876 30.5039 200.723 31.5735H208.259Z" fill="white"/>
<path d="M51.3634 0V17.2751L49.128 21.8743L45.418 2.97269C46.7802 1.17 48.9356 0 51.3634 0Z" fill="#3774FA"/>
<path d="M20.8677 28.1806V23.0525C20.8677 20.8009 21.8612 18.7899 23.4316 17.4197L27.3978 31.6741C26.6447 31.2654 25.8433 30.9291 25.0101 30.6806C24.0007 29.3425 22.5184 28.4449 20.8677 28.1806Z" fill="#2563EB"/>
<path d="M28.3433 15.5767V32.2348C28.183 32.1386 28.0948 32.0825 28.0948 32.0825C27.8707 31.9384 27.6381 31.802 27.3977 31.674L23.4316 17.4196C24.7457 16.2738 26.4606 15.5767 28.3433 15.5767Z" fill="#3774FA"/>
<path d="M33.5225 11.9347L39.8602 31.4989V8.41309C37.1847 8.41282 34.8442 9.82237 33.5225 11.9347Z" fill="#3774FA"/>
<path d="M14.594 30.7765C14.2173 31.2892 13.9128 31.8662 13.7045 32.491C12.206 33.5568 10.9482 34.9429 10.0188 36.5453L9.36182 37.6752V23.4768C9.36182 21.9303 9.83446 20.4882 10.644 19.2942L14.594 30.7765Z" fill="#2563EB"/>
<path d="M16.8135 16.0254V28.8455C15.9321 29.3022 15.1708 29.9673 14.5939 30.7765L10.6436 19.2945C11.9818 17.3234 14.2415 16.0254 16.8135 16.0254Z" fill="#3774FA"/>
<path d="M49.1279 21.8745V21.8825L43.9116 32.6674V7.45188C43.9116 5.76909 44.4805 4.22293 45.4179 2.9729L49.1279 21.8745Z" fill="#2563EB"/>
<path d="M59.5474 45.6038C59.5474 45.6518 59.5474 45.7 59.5315 45.748C59.307 49.8583 49.1712 53.1676 36.6874 53.1676C24.0675 53.1676 13.8354 49.7783 13.8354 45.6035C13.8354 45.2511 13.9076 44.9064 14.0518 44.5699C14.1639 44.2894 14.3242 44.0169 14.5244 43.7526C15.2617 42.775 16.5836 41.8777 18.3465 41.1006C18.635 40.9642 18.9395 40.8362 19.2518 40.7239C19.268 40.7158 19.2921 40.708 19.308 40.6999C19.2921 40.708 19.2758 40.7239 19.2677 40.732C18.4424 41.3649 18.3462 42.6069 19.0433 43.3921C21.3671 46.0123 28.6906 47.9271 37.3683 47.9271C45.1005 47.9271 51.743 46.4127 54.7477 44.2252C55.5731 43.6324 55.7492 42.4223 55.0924 41.6371C54.852 41.3407 54.5475 41.0602 54.187 40.7877C54.1468 40.7557 54.0989 40.7236 54.0587 40.6915C54.1148 40.7155 54.1708 40.7317 54.2191 40.7557C55.0444 41.0841 55.7895 41.4288 56.4467 41.8052C57.4081 42.3501 58.1694 42.9351 58.6902 43.5519C59.251 44.2018 59.5474 44.8908 59.5474 45.6038Z" fill="url(#paint0_linear_97_150)"/>
<path d="M58.6901 43.5527C57.1197 47.6151 47.6007 50.7319 36.0864 50.7319C25.5658 50.7319 16.7038 48.1278 14.0518 44.5701C14.1639 44.2896 14.3242 44.0172 14.5244 43.7529C15.2616 42.7753 16.5836 41.878 18.3464 41.1008C18.635 40.9645 18.9395 40.8365 19.2518 40.7241C19.2518 40.7241 19.2599 40.7241 19.268 40.7322C18.4426 41.3652 18.3464 42.6071 19.0435 43.3923C21.3674 46.0126 28.6908 47.9274 37.3685 47.9274C45.1006 47.9274 51.7431 46.413 54.7479 44.2255C55.5732 43.6327 55.7495 42.4225 55.0925 41.6373C54.8522 41.3409 54.5477 41.0604 54.1871 40.788C54.203 40.7799 54.2111 40.7718 54.2192 40.7559C55.0446 41.0844 55.7896 41.429 56.4468 41.8055C57.408 42.3509 58.1692 42.9356 58.6901 43.5527Z" fill="url(#paint1_linear_97_150)"/>
<path d="M39.8575 31.4975L38.9362 34.3339C37.486 34.6624 36.22 35.4637 35.3144 36.6014C35.2982 36.5933 33.9283 35.7359 32.3818 34.7666V15.889C32.3818 14.4388 32.8065 13.0845 33.5195 11.9309L39.8575 31.4975Z" fill="#2563EB"/>
<path d="M62.2595 12.1274C62.2595 14.4665 60.363 16.3706 58.0163 16.3706C57.8686 16.3706 57.7285 16.3633 57.5808 16.3485L47.8107 36.5529C47.0581 38.0953 45.9511 39.4086 44.6082 40.4197C44.6154 40.5008 44.623 40.5819 44.623 40.6557C44.623 43.0024 42.7192 44.8989 40.3798 44.8989C38.6824 44.8989 37.2287 43.9027 36.5499 42.4711C35.111 42.2496 33.7236 41.7478 32.4692 40.9583L25.3409 36.4863C24.8834 36.1986 24.4037 35.9625 23.9093 35.7779C23.3927 37.5415 21.7692 38.8255 19.8434 38.8255C18.3969 38.8255 17.1277 38.1098 16.3603 37.0029C15.6223 37.5933 14.9952 38.3165 14.5008 39.1578L10.0436 46.8175L9.1137 48.4189L7.77798 50.7139C8.22071 51.3854 8.4864 52.1897 8.4864 53.0606C8.4864 53.2597 8.47157 53.4516 8.4422 53.6437C8.35355 54.2783 8.12478 54.8687 7.77798 55.3852C7.03265 56.5439 5.72658 57.3038 4.2432 57.3038C1.89647 57.3038 0 55.4001 0 53.0606C0 52.0571 0.346793 51.1345 0.929906 50.4115C1.32844 49.9098 1.83745 49.5113 2.41329 49.2383C2.96676 48.9653 3.58652 48.8177 4.24346 48.8177C4.63445 48.8177 5.01089 48.8767 5.37251 48.9799L6.96636 46.2422L9.29828 42.2426L11.9549 37.6747C12.87 36.0954 14.1467 34.8041 15.6594 33.889C15.9914 31.8818 17.7329 30.3469 19.8436 30.3469C21.4744 30.3469 22.884 31.2693 23.5996 32.6198C24.7508 32.8855 25.8725 33.3358 26.9057 33.9849L34.0415 38.4569C34.7499 38.9069 35.5249 39.2243 36.3217 39.4235C36.8531 37.6819 38.469 36.4201 40.3803 36.4201C41.539 36.4201 42.5867 36.8849 43.3541 37.6377C44.0921 36.9735 44.7119 36.1765 45.1473 35.2616L54.9396 15.0351C54.2239 14.2825 53.7736 13.2567 53.7736 12.1276C53.7736 9.78841 55.6773 7.8844 58.0168 7.8844C60.363 7.88413 62.2595 9.78814 62.2595 12.1274Z" fill="white"/>
<defs>
<linearGradient id="paint0_linear_97_150" x1="13.8354" y1="46.93" x2="59.5475" y2="46.93" gradientUnits="userSpaceOnUse">
<stop stop-color="#2563EB"/>
<stop offset="1" stop-color="#3071FF"/>
</linearGradient>
<linearGradient id="paint1_linear_97_150" x1="36.3624" y1="44.1506" x2="35.8366" y2="49.6593" gradientUnits="userSpaceOnUse">
<stop stop-color="#2563EB"/>
<stop offset="1" stop-color="#3774FA"/>
</linearGradient>
</defs>
</svg>
