<svg width="132" height="99" viewBox="0 0 132 99" fill="none" xmlns="http://www.w3.org/2000/svg">
<path d="M60.9707 58.2193C64.7715 58.8892 68.6669 58.8048 72.4349 57.9712C76.2029 57.1376 79.7695 55.5713 82.9311 53.3613C86.0931 51.1517 88.7878 48.3415 90.862 45.0918C92.9358 41.8421 94.3487 38.2163 95.0193 34.4215L89.231 33.4015C88.6946 36.4374 87.5644 39.3382 85.905 41.9379C84.2458 44.5377 82.0899 46.7856 79.5606 48.5536C77.0313 50.3213 74.178 51.5745 71.1634 52.2413C68.1491 52.9082 64.0112 53.1839 60.9707 52.6481V58.2193Z" fill="#F4B609"/>
<path d="M61.0078 29.9917H95.454L95.396 32.2065L95.3936 32.2428C95.328 33.2858 95.1344 34.3168 94.8173 35.3126H65.3376V37.5621H76.4717L72.2966 41.78H65.3376V47.325L61.0078 51.829V29.9917Z" fill="black"/>
<path fill-rule="evenodd" clip-rule="evenodd" d="M53.353 10.8841H74.9502L79.7344 16.0087H58.5473V19.5151H94.1329C94.7942 21.1737 95.2374 22.8929 95.4539 24.6397H58.5473V57.3698C56.7593 57.0354 55.0163 56.4966 53.353 55.7659V24.6397V19.5151V16.0087V13.0764V10.8841Z" fill="black"/>
<path fill-rule="evenodd" clip-rule="evenodd" d="M93.125 17.1622C91.1876 12.9228 88.2668 9.20475 84.6037 6.31608C80.9218 3.41256 76.5974 1.43139 71.9918 0.538249C67.3861 -0.354887 62.6331 -0.134039 58.1304 1.18233C53.6277 2.49869 49.5061 4.87233 46.1103 8.10472C42.7144 11.3371 40.1429 15.3343 38.6109 19.7621C37.0789 24.19 36.6309 28.9198 37.3043 33.5558C37.9777 38.1919 39.753 42.5995 42.4817 46.4104C44.8172 49.6721 47.793 52.4151 51.2203 54.4774L51.3446 47.384C49.8075 46.1063 48.4346 44.6331 47.2631 42.9969C45.0801 39.9484 43.6599 36.4223 43.1212 32.7135C42.5824 29.0044 42.9409 25.2208 44.1665 21.6785C45.3921 18.1363 47.4492 14.9385 50.1659 12.3526C52.8826 9.76665 56.1799 7.86773 59.7821 6.81465C63.3843 5.76154 67.1865 5.58488 70.8712 6.29937C74.5556 7.01389 78.0152 8.59881 80.9606 10.9217C83.1663 12.661 85.0357 14.7762 86.4862 17.1622H93.125Z" fill="#F4B609"/>
<path d="M112.08 86.7129C111.784 86.7129 111.508 86.5626 111.348 86.3138L106.791 79.2316C106.44 78.686 105.635 78.7033 105.307 79.2638L101.21 86.2819C101.054 86.5488 100.768 86.7129 100.458 86.7129H96.6866C96.0033 86.7129 95.5869 85.9625 95.9489 85.3841L102.958 74.1872C103.136 73.9019 103.134 73.5392 102.951 73.2564L95.8706 62.2871C95.4975 61.7091 95.9131 60.948 96.6018 60.948H100.484C100.78 60.948 101.055 61.0978 101.215 61.3456L105.771 68.3946C106.123 68.9396 106.927 68.9209 107.254 68.3601L111.317 61.3801C111.472 61.1126 111.759 60.948 112.069 60.948H115.841C116.524 60.948 116.941 61.6978 116.579 62.2763L109.605 73.4377C109.427 73.7226 109.429 74.0845 109.611 74.367L116.696 85.3747C117.068 85.9529 116.652 86.7129 115.964 86.7129H112.08Z" fill="black"/>
<path d="M17.7339 69.9572C17.7339 70.316 17.4432 70.6072 17.0839 70.6086L8.85579 70.6405C8.49654 70.6419 8.20601 70.9331 8.20601 71.2919V86.1962C8.20601 86.5559 7.91396 86.8476 7.55362 86.8476H3.60885C3.24851 86.8476 2.95646 86.5559 2.95646 86.1962V71.2944C2.95646 70.9346 2.66441 70.643 2.30408 70.643H1.27983C0.919494 70.643 0.627441 70.3514 0.627441 69.9916V67.0495C0.627441 66.6897 0.919494 66.3981 1.27983 66.3981H2.30408C2.66441 66.3981 2.95646 66.1064 2.95646 65.7467V65.3645C2.95646 62.8545 3.67127 61.0089 5.10065 59.8277C6.42282 58.735 8.36737 58.1793 10.9339 58.1606C11.2877 58.158 11.5702 58.4483 11.5702 58.8015V61.858C11.5702 62.2227 11.2698 62.5124 10.9052 62.533C9.99942 62.5841 9.34616 62.7897 8.94538 63.1498C8.45239 63.5927 8.20601 64.3925 8.20601 65.5491V65.7467C8.20601 66.1064 8.49806 66.3981 8.8584 66.3981H17.0815C17.4416 66.3981 17.7339 66.6897 17.7339 67.0495V69.9572Z" fill="#F4B609"/>
<path d="M17.7711 63.9619C16.8591 63.9619 16.0951 63.6789 15.479 63.1129C14.8875 62.5223 14.5918 61.7963 14.5918 60.935C14.5918 60.0737 14.8875 59.3601 15.479 58.7941C16.0951 58.2035 16.8591 57.9082 17.7711 57.9082C18.6829 57.9082 19.4347 58.2035 20.0262 58.7941C20.6423 59.3601 20.9504 60.0737 20.9504 60.935C20.9504 61.7963 20.6423 62.5223 20.0262 63.1129C19.4347 63.6789 18.6829 63.9619 17.7711 63.9619ZM19.6695 66.3981C20.0297 66.3981 20.3219 66.6897 20.3219 67.0495V86.1962C20.3219 86.556 20.0297 86.8476 19.6695 86.8476H15.7987C15.4384 86.8476 15.1463 86.556 15.1463 86.1962V67.0495C15.1463 66.6897 15.4384 66.3981 15.7987 66.3981H19.6695Z" fill="#F4B609"/>
<path d="M30.6107 67.3097C30.6107 67.9442 31.5216 68.2754 32.0207 67.8826C32.4193 67.5689 32.8612 67.2832 33.3463 67.0256C34.5293 66.3858 35.8726 66.0659 37.3759 66.0659C39.1258 66.0659 40.7031 66.4965 42.1079 67.3578C43.5373 68.2191 44.6587 69.4495 45.472 71.0491C46.3099 72.624 46.729 74.4573 46.729 76.549C46.729 78.6406 46.3099 80.4986 45.472 82.1228C44.6587 83.7224 43.5373 84.965 42.1079 85.8509C40.7031 86.7368 39.1258 87.1798 37.3759 87.1798C35.8726 87.1798 34.5417 86.8721 33.3833 86.257C32.8629 85.9745 32.3867 85.6584 31.9544 85.3086C31.4696 84.9162 30.6107 85.2356 30.6107 85.8588V95.9411C30.6107 96.3009 30.3186 96.5925 29.9583 96.5925H26.0874C25.7271 96.5925 25.4351 96.3009 25.4351 95.9411V67.0495C25.4351 66.6897 25.7271 66.3981 26.0874 66.3981H29.9583C30.3186 66.3981 30.6107 66.6897 30.6107 67.0495V67.3097ZM41.4425 76.549C41.4425 75.3186 41.1837 74.2604 40.6661 73.3745C40.1731 72.464 39.5077 71.775 38.6698 71.3075C37.8565 70.8399 36.9693 70.6061 36.0081 70.6061C35.0715 70.6061 34.1842 70.8522 33.3463 71.3444C32.533 71.8119 31.8676 72.501 31.35 73.4115C30.8571 74.322 30.6107 75.3924 30.6107 76.6228C30.6107 77.8533 30.8571 78.9238 31.35 79.8342C31.8676 80.7447 32.533 81.446 33.3463 81.9382C34.1842 82.4057 35.0715 82.6396 36.0081 82.6396C36.9693 82.6396 37.8565 82.3936 38.6698 81.9013C39.5077 81.4091 40.1731 80.7077 40.6661 79.7973C41.1837 78.8869 41.4425 77.804 41.4425 76.549Z" fill="#F4B609"/>
<path d="M61.8396 66.103C64.2795 66.103 66.251 66.8781 67.7546 68.4285C69.2579 69.9542 70.0097 72.0951 70.0097 74.8512V86.1964C70.0097 86.5562 69.7176 86.8478 69.3573 86.8478H65.4864C65.1261 86.8478 64.8341 86.5562 64.8341 86.1964V75.5526C64.8341 73.9284 64.4274 72.6857 63.6141 71.8244C62.8008 70.9385 61.6917 70.4956 60.2869 70.4956C58.8573 70.4956 57.7237 70.9385 56.8858 71.8244C56.0725 72.6857 55.6658 73.9284 55.6658 75.5526V86.1964C55.6658 86.5562 55.3738 86.8478 55.0135 86.8478H51.1426C50.7823 86.8478 50.4902 86.5562 50.4902 86.1964V67.0497C50.4902 66.6899 50.7823 66.3983 51.1426 66.3983H55.0141C55.374 66.3983 55.6658 66.6896 55.6658 67.0489C55.6658 67.6684 56.5218 67.9931 57.0213 67.6256C57.4099 67.3398 57.8331 67.0906 58.2906 66.8781C59.3749 66.3614 60.5579 66.103 61.8396 66.103Z" fill="#F4B609"/>
<path d="M93.9698 76.1799C93.9698 76.6986 93.9457 77.1809 93.897 77.6266C93.8624 77.9432 93.5884 78.1732 93.2694 78.1732H79.5588C79.1771 78.1732 78.8733 78.5002 78.9423 78.8749C79.1537 80.021 79.6403 80.9438 80.4023 81.6429C81.3144 82.4795 82.4356 82.898 83.7665 82.898C85.5447 82.898 86.8484 82.1927 87.6778 80.782C87.8034 80.5679 88.0274 80.4248 88.276 80.4248H92.5754C93.0125 80.4248 93.3259 80.8463 93.1641 81.2514C92.5241 82.8528 91.4866 84.2014 90.0511 85.2973C88.3754 86.5523 86.3173 87.1798 83.8774 87.1798C81.9059 87.1798 80.1314 86.7492 78.5539 85.8879C77.0012 85.002 75.7812 83.7593 74.894 82.1597C74.0315 80.5601 73.6001 78.7145 73.6001 76.6228C73.6001 74.5065 74.0315 72.6486 74.894 71.0491C75.7567 69.4495 76.9642 68.2191 78.5169 67.3578C80.0696 66.4965 81.8565 66.0659 83.8774 66.0659C85.8245 66.0659 87.5621 66.4842 89.0899 67.3209C90.6426 68.1576 91.838 69.3511 92.6759 70.9014C93.5386 72.4271 93.9698 74.1866 93.9698 76.1799ZM87.9448 74.7034C88.3099 74.7034 88.6094 74.4029 88.5563 74.0422C88.406 73.0188 87.9433 72.1811 87.1676 71.5289C86.2312 70.7169 85.0852 70.3108 83.7295 70.3108C82.448 70.3108 81.3635 70.7045 80.4763 71.492C79.7741 72.113 79.2924 72.9379 79.0312 73.9666C78.9336 74.3509 79.2419 74.7034 79.6388 74.7034H87.9448Z" fill="#F4B609"/>
<path d="M127.6 70.6429C127.239 70.6429 126.947 70.9346 126.947 71.2943V80.5355C126.947 81.2244 127.107 81.7291 127.428 82.0489C127.773 82.3442 128.34 82.4918 129.129 82.4918H130.879C131.239 82.4918 131.532 82.7834 131.532 83.1432V86.1961C131.532 86.5559 131.239 86.8475 130.879 86.8475H128.278C123.916 86.8475 121.735 84.7311 121.735 80.4986V71.2943C121.735 70.9346 121.443 70.6429 121.082 70.6429H119.947C119.587 70.6429 119.295 70.3513 119.295 69.9916V67.0494C119.295 66.6896 119.587 66.398 119.947 66.398H121.082C121.443 66.398 121.735 66.1064 121.735 65.7466V61.9924C121.735 61.6326 122.027 61.341 122.387 61.341H126.295C126.655 61.341 126.947 61.6326 126.947 61.9924V65.7466C126.947 66.1064 127.239 66.398 127.6 66.398H130.879C131.239 66.398 131.532 66.6896 131.532 67.0494V69.9916C131.532 70.3513 131.239 70.6429 130.879 70.6429H127.6Z" fill="#F4B609"/>
<path d="M35.0182 93.5853C35.1382 93.3771 35.3159 93.204 35.5512 93.0666C35.7908 92.9248 36.0683 92.8538 36.3836 92.8538C36.7079 92.8538 37.0008 92.9315 37.2628 93.0866C37.5292 93.2418 37.738 93.4613 37.8889 93.7449C38.0398 94.0243 38.1153 94.3503 38.1153 94.7226C38.1153 95.0905 38.0398 95.4186 37.8889 95.7069C37.738 95.995 37.5292 96.2189 37.2628 96.3785C37.0008 96.5381 36.7079 96.618 36.3836 96.618C36.0729 96.618 35.7976 96.5492 35.5577 96.4117C35.3224 96.2699 35.1426 96.0947 35.0182 95.8865V98.2871H34.4121V92.9137H35.0182V93.5853ZM37.4959 94.7226C37.4959 94.4478 37.4405 94.2083 37.3294 94.0044C37.2185 93.8005 37.0675 93.6452 36.8766 93.5388C36.69 93.4324 36.4837 93.3792 36.2571 93.3792C36.035 93.3792 35.8287 93.4346 35.6377 93.5456C35.4511 93.652 35.3002 93.8094 35.1848 94.0176C35.0738 94.2215 35.0182 94.4588 35.0182 94.7292C35.0182 95.004 35.0738 95.2457 35.1848 95.4542C35.3002 95.658 35.4511 95.8155 35.6377 95.9262C35.8287 96.0326 36.035 96.0858 36.2571 96.0858C36.4837 96.0858 36.69 96.0326 36.8766 95.9262C37.0675 95.8155 37.2185 95.658 37.3294 95.4542C37.4405 95.2457 37.4959 95.0019 37.4959 94.7226ZM40.505 96.618C40.1631 96.618 39.8524 96.5403 39.5725 96.3852C39.2972 96.23 39.0797 96.0105 38.9199 95.7269C38.7644 95.4385 38.6868 95.1061 38.6868 94.7292C38.6868 94.3568 38.7666 94.0287 38.9264 93.7449C39.0908 93.4568 39.3128 93.2375 39.5925 93.0866C39.8722 92.9315 40.1853 92.8538 40.5317 92.8538C40.8779 92.8538 41.1911 92.9315 41.4707 93.0866C41.7504 93.2375 41.9702 93.4546 42.1301 93.7384C42.2945 94.0222 42.3765 94.3524 42.3765 94.7292C42.3765 95.1061 42.2923 95.4385 42.1235 95.7269C41.9591 96.0105 41.7349 96.23 41.4507 96.3852C41.1665 96.5403 40.8514 96.618 40.505 96.618ZM40.505 96.0858C40.7227 96.0858 40.9269 96.035 41.1178 95.9329C41.3087 95.8309 41.4618 95.678 41.5773 95.4741C41.6971 95.27 41.7571 95.0218 41.7571 94.7292C41.7571 94.4367 41.6995 94.1883 41.584 93.9844C41.4686 93.7805 41.3176 93.6298 41.131 93.5321C40.9445 93.4303 40.7424 93.3792 40.525 93.3792C40.3029 93.3792 40.0988 93.4303 39.9122 93.5321C39.7302 93.6298 39.5836 93.7805 39.4727 93.9844C39.3616 94.1883 39.3061 94.4367 39.3061 94.7292C39.3061 95.0262 39.3594 95.2768 39.4659 95.4806C39.5771 95.6848 39.7234 95.8376 39.9056 95.9397C40.0877 96.0372 40.2875 96.0858 40.505 96.0858ZM48.0355 92.9137L46.8966 96.5581H46.2706L45.3914 93.6652L44.5122 96.5581H43.8861L42.7405 92.9137H43.36L44.1992 95.9729L45.105 92.9137H45.7243L46.6102 95.9794L47.4362 92.9137H48.0355ZM51.9672 94.5963C51.9672 94.7116 51.9607 94.8334 51.9472 94.9619H49.0299C49.0523 95.3211 49.1743 95.6027 49.3964 95.8066C49.6227 96.0061 49.8959 96.1058 50.2155 96.1058C50.4776 96.1058 50.6951 96.0461 50.8684 95.9262C51.0458 95.8022 51.1702 95.6381 51.2413 95.4342H51.8939C51.7963 95.7844 51.601 96.0704 51.3079 96.2921C51.0149 96.5092 50.6507 96.618 50.2155 96.618C49.8693 96.618 49.5584 96.5403 49.2831 96.3852C49.0123 96.23 48.7992 96.0105 48.6437 95.7269C48.4882 95.4385 48.4106 95.1061 48.4106 94.7292C48.4106 94.3524 48.4861 94.0222 48.637 93.7384C48.7881 93.4546 48.9991 93.2375 49.2698 93.0866C49.5451 92.9315 49.8604 92.8538 50.2155 92.8538C50.562 92.8538 50.8684 92.9291 51.1348 93.08C51.4011 93.2307 51.6053 93.4392 51.7476 93.7052C51.8939 93.9666 51.9672 94.2636 51.9672 94.5963ZM51.3411 94.4699C51.3411 94.2393 51.29 94.0419 51.188 93.878C51.0858 93.7095 50.946 93.5831 50.7683 93.4989C50.5952 93.4103 50.4021 93.366 50.189 93.366C49.8826 93.366 49.6206 93.4635 49.4031 93.6585C49.19 93.8537 49.0678 94.124 49.0367 94.4699H51.3411ZM53.3733 93.5056C53.4799 93.2972 53.631 93.1354 53.8263 93.0201C54.0261 92.9048 54.2682 92.8473 54.5522 92.8473V93.4724H54.3923C53.713 93.4724 53.3733 93.8402 53.3733 94.5763V96.5581H52.7672V92.9137H53.3733V93.5056ZM58.5822 94.5963C58.5822 94.7116 58.5755 94.8334 58.5622 94.9619H55.6449C55.6671 95.3211 55.7891 95.6027 56.0111 95.8066C56.2377 96.0061 56.5106 96.1058 56.8305 96.1058C57.0924 96.1058 57.31 96.0461 57.4831 95.9262C57.6608 95.8022 57.7852 95.6381 57.8561 95.4342H58.5089C58.4113 95.7844 58.2158 96.0704 57.9228 96.2921C57.6297 96.5092 57.2657 96.618 56.8305 96.618C56.4841 96.618 56.1734 96.5403 55.8981 96.3852C55.6271 96.23 55.414 96.0105 55.2585 95.7269C55.1032 95.4385 55.0254 95.1061 55.0254 94.7292C55.0254 94.3524 55.1011 94.0222 55.252 93.7384C55.4029 93.4546 55.6138 93.2375 55.8846 93.0866C56.1599 92.9315 56.4752 92.8538 56.8305 92.8538C57.1767 92.8538 57.4831 92.9291 57.7495 93.08C58.0159 93.2307 58.2203 93.4392 58.3623 93.7052C58.5089 93.9666 58.5822 94.2636 58.5822 94.5963ZM57.9561 94.4699C57.9561 94.2393 57.905 94.0419 57.8028 93.878C57.7008 93.7095 57.5608 93.5831 57.3833 93.4989C57.21 93.4103 57.0169 93.366 56.8038 93.366C56.4974 93.366 56.2356 93.4635 56.0179 93.6585C55.8048 93.8537 55.6825 94.124 55.6514 94.4699H57.9561ZM59.1556 94.7226C59.1556 94.3503 59.2311 94.0243 59.3822 93.7449C59.5332 93.4613 59.7395 93.2418 60.0016 93.0866C60.268 92.9315 60.5655 92.8538 60.894 92.8538C61.1783 92.8538 61.4425 92.9204 61.6867 93.0533C61.9309 93.1819 62.1173 93.3525 62.2462 93.5653V91.6368H62.8588V96.5581H62.2462V95.873C62.1262 96.0904 61.9487 96.2699 61.7132 96.4117C61.4779 96.5492 61.2026 96.618 60.8875 96.618C60.5633 96.618 60.268 96.5381 60.0016 96.3785C59.7395 96.2189 59.5332 95.995 59.3822 95.7069C59.2311 95.4186 59.1556 95.0905 59.1556 94.7226ZM62.2462 94.7292C62.2462 94.4543 62.1905 94.215 62.0796 94.0111C61.9685 93.807 61.8176 93.652 61.6267 93.5456C61.4403 93.4346 61.2337 93.3792 61.0073 93.3792C60.7807 93.3792 60.5744 93.4324 60.3878 93.5388C60.2014 93.6452 60.0527 93.8005 59.9416 94.0044C59.8306 94.2083 59.7752 94.4478 59.7752 94.7226C59.7752 95.0019 59.8306 95.2457 59.9416 95.4542C60.0527 95.658 60.2014 95.8155 60.3878 95.9262C60.5744 96.0326 60.7807 96.0858 61.0073 96.0858C61.2337 96.0858 61.4403 96.0326 61.6267 95.9262C61.8176 95.8155 61.9685 95.658 62.0796 95.4542C62.1905 95.2457 62.2462 95.004 62.2462 94.7292ZM66.2649 93.592C66.3893 93.3747 66.5713 93.1975 66.811 93.0601C67.0508 92.9226 67.324 92.8538 67.6304 92.8538C67.959 92.8538 68.2541 92.9315 68.5161 93.0866C68.7781 93.2418 68.9845 93.4613 69.1354 93.7449C69.2866 94.0243 69.362 94.3503 69.362 94.7226C69.362 95.0905 69.2866 95.4186 69.1354 95.7069C68.9845 95.995 68.776 96.2189 68.5094 96.3785C68.2475 96.5381 67.9544 96.618 67.6304 96.618C67.3151 96.618 67.0376 96.5492 66.7977 96.4117C66.5624 96.2743 66.3848 96.0993 66.2649 95.8865V96.5581H65.6589V91.6368H66.2649V93.592ZM68.7425 94.7226C68.7425 94.4478 68.687 94.2083 68.5761 94.0044C68.465 93.8005 68.3141 93.6452 68.1231 93.5388C67.9366 93.4324 67.7302 93.3792 67.5038 93.3792C67.2818 93.3792 67.0752 93.4346 66.8843 93.5456C66.6979 93.652 66.5468 93.8094 66.4315 94.0176C66.3204 94.2215 66.2649 94.4588 66.2649 94.7292C66.2649 95.004 66.3204 95.2457 66.4315 95.4542C66.5468 95.658 66.6979 95.8155 66.8843 95.9262C67.0752 96.0326 67.2818 96.0858 67.5038 96.0858C67.7302 96.0858 67.9366 96.0326 68.1231 95.9262C68.3141 95.8155 68.465 95.658 68.5761 95.4542C68.687 95.2457 68.7425 95.0019 68.7425 94.7226ZM73.3035 92.9137L71.1056 98.2738H70.4796L71.1987 96.5181L69.7269 92.9137H70.3995L71.5451 95.8665L72.6775 92.9137H73.3035ZM78.3126 91.9227V92.415H76.2945V93.9777H77.9329V94.4699H76.2945V96.5581H75.6884V91.9227H78.3126ZM79.6508 91.9227V96.5581H79.0445V91.9227H79.6508ZM83.7874 93.2796C83.7874 93.6652 83.6543 93.9866 83.3879 94.2439C83.1259 94.4964 82.724 94.6228 82.1823 94.6228H81.2898V96.5581H80.6838V91.9227H82.1823C82.7062 91.9227 83.1037 92.0491 83.3744 92.3018C83.6497 92.5546 83.7874 92.8805 83.7874 93.2796ZM82.1823 94.124C82.5198 94.124 82.7684 94.0508 82.9282 93.9047C83.088 93.7584 83.1681 93.5499 83.1681 93.2796C83.1681 92.7077 82.8395 92.4217 82.1823 92.4217H81.2898V94.124H82.1823ZM89.1737 91.9227V92.415H87.9083V96.5581H87.3022V92.415H86.0301V91.9227H89.1737ZM90.5259 93.5056C90.6325 93.2972 90.7834 93.1354 90.9789 93.0201C91.1785 92.9048 91.4206 92.8473 91.7048 92.8473V93.4724H91.5449C90.8656 93.4724 90.5259 93.8402 90.5259 94.5763V96.5581H89.9198V92.9137H90.5259V93.5056ZM92.178 94.7226C92.178 94.3503 92.2534 94.0243 92.4043 93.7449C92.5555 93.4613 92.7619 93.2418 93.0239 93.0866C93.2903 92.9315 93.5856 92.8538 93.9096 92.8538C94.2293 92.8538 94.507 92.9226 94.7423 93.0601C94.9776 93.1975 95.1531 93.3703 95.2683 93.5788V92.9137H95.8811V96.5581H95.2683V95.8797C95.1485 96.0925 94.9687 96.2699 94.729 96.4117C94.4935 96.5492 94.2182 96.618 93.9031 96.618C93.5789 96.618 93.2859 96.5381 93.0239 96.3785C92.7619 96.2189 92.5555 95.995 92.4043 95.7069C92.2534 95.4186 92.178 95.0905 92.178 94.7226ZM95.2683 94.7292C95.2683 94.4543 95.2129 94.215 95.102 94.0111C94.9909 93.807 94.8399 93.652 94.649 93.5456C94.4624 93.4346 94.256 93.3792 94.0297 93.3792C93.8031 93.3792 93.5967 93.4324 93.4101 93.5388C93.2237 93.6452 93.075 93.8005 92.9639 94.0044C92.853 94.2083 92.7973 94.4478 92.7973 94.7226C92.7973 95.0019 92.853 95.2457 92.9639 95.4542C93.075 95.658 93.2237 95.8155 93.4101 95.9262C93.5967 96.0326 93.8031 96.0858 94.0297 96.0858C94.256 96.0858 94.4624 96.0326 94.649 95.9262C94.8399 95.8155 94.9909 95.658 95.102 95.4542C95.2129 95.2457 95.2683 95.004 95.2683 94.7292ZM96.679 94.7226C96.679 94.3503 96.7545 94.0243 96.9054 93.7449C97.0563 93.4613 97.2629 93.2418 97.5249 93.0866C97.7913 92.9315 98.0888 92.8538 98.4174 92.8538C98.7014 92.8538 98.9656 92.9204 99.2098 93.0533C99.4541 93.1819 99.6406 93.3525 99.7694 93.5653V91.6368H100.382V96.5581H99.7694V95.873C99.6496 96.0904 99.4719 96.2699 99.2366 96.4117C99.0013 96.5492 98.726 96.618 98.4107 96.618C98.0864 96.618 97.7913 96.5381 97.5249 96.3785C97.2629 96.2189 97.0563 95.995 96.9054 95.7069C96.7545 95.4186 96.679 95.0905 96.679 94.7226ZM99.7694 94.7292C99.7694 94.4543 99.7139 94.215 99.6028 94.0111C99.4919 93.807 99.341 93.652 99.15 93.5456C98.9635 93.4346 98.7571 93.3792 98.5305 93.3792C98.3041 93.3792 98.0977 93.4324 97.9112 93.5388C97.7246 93.6452 97.5758 93.8005 97.4649 94.0044C97.3538 94.2083 97.2983 94.4478 97.2983 94.7226C97.2983 95.0019 97.3538 95.2457 97.4649 95.4542C97.5758 95.658 97.7246 95.8155 97.9112 95.9262C98.0977 96.0326 98.3041 96.0858 98.5305 96.0858C98.7571 96.0858 98.9635 96.0326 99.15 95.9262C99.341 95.8155 99.4919 95.658 99.6028 95.4542C99.7139 95.2457 99.7694 95.004 99.7694 94.7292ZM104.737 94.5963C104.737 94.7116 104.73 94.8334 104.717 94.9619H101.799C101.822 95.3211 101.944 95.6027 102.166 95.8066C102.392 96.0061 102.665 96.1058 102.985 96.1058C103.247 96.1058 103.464 96.0461 103.638 95.9262C103.815 95.8022 103.94 95.6381 104.011 95.4342H104.663C104.566 95.7844 104.37 96.0704 104.077 96.2921C103.784 96.5092 103.42 96.618 102.985 96.618C102.639 96.618 102.328 96.5403 102.053 96.3852C101.782 96.23 101.568 96.0105 101.413 95.7269C101.258 95.4385 101.18 95.1061 101.18 94.7292C101.18 94.3524 101.256 94.0222 101.406 93.7384C101.557 93.4546 101.768 93.2375 102.039 93.0866C102.314 92.9315 102.63 92.8538 102.985 92.8538C103.331 92.8538 103.638 92.9291 103.904 93.08C104.17 93.2307 104.375 93.4392 104.517 93.7052C104.663 93.9666 104.737 94.2636 104.737 94.5963ZM104.111 94.4699C104.111 94.2393 104.059 94.0419 103.957 93.878C103.855 93.7095 103.715 93.5831 103.538 93.4989C103.364 93.4103 103.171 93.366 102.958 93.366C102.652 93.366 102.39 93.4635 102.172 93.6585C101.959 93.8537 101.837 94.124 101.806 94.4699H104.111ZM109.936 91.9227V92.415H107.918V93.9777H109.557V94.4699H107.918V96.5581H107.312V91.9227H109.936ZM110.442 94.7226C110.442 94.3503 110.517 94.0243 110.669 93.7449C110.82 93.4613 111.026 93.2418 111.288 93.0866C111.554 92.9315 111.85 92.8538 112.174 92.8538C112.494 92.8538 112.771 92.9226 113.006 93.0601C113.242 93.1975 113.417 93.3703 113.533 93.5788V92.9137H114.145V96.5581H113.533V95.8797C113.413 96.0925 113.233 96.2699 112.993 96.4117C112.758 96.5492 112.482 96.618 112.167 96.618C111.843 96.618 111.55 96.5381 111.288 96.3785C111.026 96.2189 110.82 95.995 110.669 95.7069C110.517 95.4186 110.442 95.0905 110.442 94.7226ZM113.533 94.7292C113.533 94.4543 113.477 94.215 113.366 94.0111C113.255 93.807 113.104 93.652 112.913 93.5456C112.727 93.4346 112.52 93.3792 112.294 93.3792C112.067 93.3792 111.861 93.4324 111.674 93.5388C111.488 93.6452 111.339 93.8005 111.228 94.0044C111.117 94.2083 111.062 94.4478 111.062 94.7226C111.062 95.0019 111.117 95.2457 111.228 95.4542C111.339 95.658 111.488 95.8155 111.674 95.9262C111.861 96.0326 112.067 96.0858 112.294 96.0858C112.52 96.0858 112.727 96.0326 112.913 95.9262C113.104 95.8155 113.255 95.658 113.366 95.4542C113.477 95.2457 113.533 95.004 113.533 94.7292ZM114.943 94.7292C114.943 94.3524 115.018 94.0243 115.169 93.7449C115.32 93.4613 115.529 93.2418 115.795 93.0866C116.066 92.9315 116.375 92.8538 116.721 92.8538C117.17 92.8538 117.538 92.9626 117.827 93.1797C118.12 93.3971 118.313 93.6984 118.406 94.0841H117.754C117.692 93.8626 117.569 93.6874 117.387 93.5588C117.21 93.4303 116.988 93.366 116.721 93.366C116.375 93.366 116.095 93.4856 115.882 93.7251C115.669 93.9601 115.562 94.2947 115.562 94.7292C115.562 95.1682 115.669 95.5074 115.882 95.7466C116.095 95.9861 116.375 96.1058 116.721 96.1058C116.988 96.1058 117.21 96.0437 117.387 95.9197C117.565 95.7955 117.687 95.6181 117.754 95.3877H118.406C118.309 95.7601 118.113 96.0593 117.82 96.2853C117.527 96.507 117.161 96.618 116.721 96.618C116.375 96.618 116.066 96.5403 115.795 96.3852C115.529 96.23 115.32 96.0105 115.169 95.7269C115.018 95.4431 114.943 95.1104 114.943 94.7292ZM119.954 93.4125V95.5606C119.954 95.738 119.992 95.8643 120.068 95.9397C120.143 96.0104 120.274 96.0461 120.461 96.0461H120.907V96.5581H120.361C120.023 96.5581 119.77 96.4805 119.602 96.3253C119.433 96.17 119.348 95.9151 119.348 95.5606V93.4125H118.875V92.9137H119.348V91.9959H119.954V92.9137H120.907V93.4125H119.954ZM123.233 96.618C122.891 96.618 122.58 96.5403 122.301 96.3852C122.025 96.23 121.808 96.0105 121.648 95.7269C121.493 95.4385 121.415 95.1061 121.415 94.7292C121.415 94.3568 121.495 94.0287 121.655 93.7449C121.819 93.4568 122.041 93.2375 122.321 93.0866C122.6 92.9315 122.913 92.8538 123.26 92.8538C123.606 92.8538 123.919 92.9315 124.199 93.0866C124.479 93.2375 124.698 93.4546 124.858 93.7384C125.022 94.0222 125.105 94.3524 125.105 94.7292C125.105 95.1061 125.02 95.4385 124.851 95.7269C124.687 96.0105 124.463 96.23 124.179 96.3852C123.895 96.5403 123.579 96.618 123.233 96.618ZM123.233 96.0858C123.451 96.0858 123.655 96.035 123.846 95.9329C124.037 95.8309 124.19 95.678 124.305 95.4741C124.425 95.27 124.485 95.0218 124.485 94.7292C124.485 94.4367 124.427 94.1883 124.312 93.9844C124.197 93.7805 124.046 93.6298 123.859 93.5321C123.673 93.4303 123.471 93.3792 123.253 93.3792C123.031 93.3792 122.827 93.4303 122.64 93.5321C122.458 93.6298 122.312 93.7805 122.201 93.9844C122.09 94.1883 122.034 94.4367 122.034 94.7292C122.034 95.0262 122.088 95.2768 122.194 95.4806C122.305 95.6848 122.452 95.8376 122.634 95.9397C122.816 96.0372 123.015 96.0858 123.233 96.0858ZM126.508 93.5056C126.614 93.2972 126.765 93.1354 126.96 93.0201C127.16 92.9048 127.402 92.8473 127.687 92.8473V93.4724H127.527C126.847 93.4724 126.508 93.8402 126.508 94.5763V96.5581H125.902V92.9137H126.508V93.5056ZM131.53 92.9137L129.332 98.2738H128.706L129.425 96.5181L127.953 92.9137H128.626L129.772 95.8665L130.904 92.9137H131.53Z" fill="black"/>
</svg>
