<svg width="713" height="204" viewBox="0 0 713 204" fill="none" xmlns="http://www.w3.org/2000/svg">
<circle cx="101.728" cy="101.728" r="95.5" fill="url(#paint0_linear_4_114)" stroke="url(#paint1_linear_4_114)" stroke-width="12.4565"/>
<path d="M135.66 166.236C135.567 166.308 135.474 166.38 135.38 166.451C116.453 180.913 87.3871 180.913 68.4559 166.455C68.3609 166.382 68.2661 166.309 68.1716 166.236C53.9203 155.213 46.0933 138.647 47.496 122.47C49.2297 102.465 63.8097 85.0945 77.2896 68.4888C87.9573 55.3448 98.557 41.061 101.917 25.7435C105.275 41.061 115.877 55.3448 126.544 68.4888C140.022 85.0944 154.604 102.465 156.338 122.47C157.739 138.647 149.912 155.213 135.66 166.236Z" fill="url(#paint2_linear_4_114)"/>
<path d="M101.947 25.7435C102.832 29.7824 104.22 33.7495 105.979 37.6429C101.201 49.1069 93.018 59.935 84.793 70.0765C71.4713 86.4991 57.062 103.678 55.3486 123.462C53.9624 139.461 61.6982 155.844 75.7822 166.746C75.8755 166.819 75.9688 166.891 76.0625 166.962C84.0524 173.069 93.8695 176.565 103.952 177.455C91.2875 177.881 78.4653 174.275 68.4678 166.634C68.3728 166.562 68.2781 166.488 68.1836 166.415C53.9244 155.378 46.0926 138.791 47.4961 122.593C49.2308 102.563 63.8193 85.1701 77.3066 68.5433C87.9802 55.3826 98.5854 41.0805 101.947 25.7435Z" fill="#2563EB"/>
<circle cx="106.296" cy="124.396" r="38.2" stroke="white" stroke-width="5.81304"/>
<circle cx="106.335" cy="124.335" r="38.2" stroke="url(#paint3_linear_4_114)" stroke-width="5.81304"/>
<path d="M120.771 103.228V116.191L119.093 119.642L116.309 105.459C117.331 104.106 118.949 103.228 120.771 103.228Z" fill="#0043FF"/>
<path d="M97.8871 124.375V120.526C97.8871 118.837 98.6326 117.328 99.811 116.3L102.787 126.996C102.222 126.689 101.621 126.437 100.996 126.251C100.238 125.246 99.1258 124.573 97.8871 124.375Z" fill="#033AD4"/>
<path d="M103.497 114.917V127.417C103.376 127.345 103.31 127.303 103.31 127.303C103.142 127.194 102.968 127.092 102.787 126.996L99.811 116.3C100.797 115.44 102.084 114.917 103.497 114.917Z" fill="#0043FF"/>
<path d="M107.383 112.184L112.139 126.865V109.541C110.131 109.541 108.375 110.599 107.383 112.184Z" fill="#0043FF"/>
<path d="M93.1794 126.323C92.8967 126.707 92.6682 127.14 92.5119 127.609C91.3875 128.409 90.4436 129.449 89.7463 130.651L89.2533 131.499V120.845C89.2533 119.685 89.608 118.602 90.2154 117.706L93.1794 126.323Z" fill="#033AD4"/>
<path d="M94.8449 115.253V124.874C94.1835 125.216 93.6122 125.715 93.1793 126.322L90.2151 117.707C91.2192 116.227 92.9149 115.253 94.8449 115.253Z" fill="#0043FF"/>
<path d="M119.093 119.643V119.649L115.179 127.742V108.82C115.179 107.557 115.606 106.397 116.309 105.459L119.093 119.643Z" fill="#033AD4"/>
<path d="M112.137 126.864V128.89C111.902 128.908 111.668 128.944 111.446 128.992L112.137 126.864Z" fill="#0043FF"/>
<path d="M112.137 126.864L111.446 128.992C110.357 129.238 109.407 129.84 108.728 130.693C108.716 130.687 107.688 130.044 106.527 129.317V115.151C106.527 114.063 106.846 113.047 107.381 112.181L112.137 126.864Z" fill="#033AD4"/>
<path d="M128.947 112.328C128.947 114.084 127.524 115.513 125.763 115.513C125.652 115.513 125.547 115.507 125.436 115.496L118.105 130.657C117.54 131.814 116.709 132.8 115.702 133.559C115.707 133.62 115.713 133.68 115.713 133.736C115.713 135.497 114.284 136.92 112.529 136.92C111.255 136.92 110.164 136.172 109.655 135.098C108.575 134.932 107.534 134.555 106.593 133.963L101.244 130.607C100.9 130.391 100.54 130.214 100.169 130.076C99.7818 131.399 98.5636 132.362 97.1185 132.362C96.0331 132.362 95.0807 131.825 94.5048 130.995C93.951 131.438 93.4805 131.98 93.1094 132.612L89.7649 138.359L89.0671 139.561L88.0648 141.283C88.397 141.787 88.5963 142.391 88.5963 143.044C88.5963 143.194 88.5852 143.338 88.5632 143.482C88.4967 143.958 88.325 144.401 88.0648 144.789C87.5055 145.658 86.5254 146.228 85.4123 146.228C83.6514 146.228 82.2283 144.8 82.2283 143.044C82.2283 142.291 82.4885 141.599 82.9261 141.056C83.2251 140.68 83.6071 140.381 84.0392 140.176C84.4545 139.971 84.9195 139.86 85.4125 139.86C85.7059 139.86 85.9884 139.905 86.2597 139.982L87.4557 137.928L89.2056 134.927L91.1991 131.499C91.8857 130.314 92.8438 129.345 93.9789 128.658C94.228 127.152 95.5348 126 97.1187 126C98.3424 126 99.4001 126.692 99.9371 127.706C100.801 127.905 101.643 128.243 102.418 128.73L107.773 132.086C108.304 132.424 108.886 132.662 109.484 132.811C109.882 131.504 111.095 130.557 112.529 130.557C113.399 130.557 114.185 130.906 114.761 131.471C115.314 130.973 115.779 130.375 116.106 129.688L123.454 114.51C122.917 113.946 122.579 113.176 122.579 112.329C122.579 110.573 124.008 109.145 125.763 109.145C127.524 109.144 128.947 110.573 128.947 112.328Z" fill="white"/>
<path d="M302.399 101.865C302.399 109.535 301.014 116.164 298.244 121.751C295.474 127.338 291.674 131.647 286.845 134.677C282.015 137.707 276.499 139.223 270.296 139.223C264.094 139.223 258.578 137.707 253.748 134.677C248.919 131.647 245.119 127.338 242.349 121.751C239.579 116.164 238.194 109.535 238.194 101.865C238.194 94.1942 239.579 87.5654 242.349 81.9783C245.119 76.3912 248.919 72.0824 253.748 69.0521C258.578 66.0218 264.094 64.5067 270.296 64.5067C276.499 64.5067 282.015 66.0218 286.845 69.0521C291.674 72.0824 295.474 76.3912 298.244 81.9783C301.014 87.5654 302.399 94.1942 302.399 101.865ZM293.876 101.865C293.876 95.5673 292.822 90.2524 290.715 85.92C288.632 81.5876 285.803 78.3088 282.228 76.0834C278.677 73.858 274.7 72.7453 270.296 72.7453C265.893 72.7453 261.904 73.858 258.329 76.0834C254.778 78.3088 251.949 81.5876 249.842 85.92C247.759 90.2524 246.717 95.5673 246.717 101.865C246.717 108.162 247.759 113.477 249.842 117.809C251.949 122.142 254.778 125.421 258.329 127.646C261.904 129.871 265.893 130.984 270.296 130.984C274.7 130.984 278.677 129.871 282.228 127.646C285.803 125.421 288.632 122.142 290.715 117.809C292.822 113.477 293.876 108.162 293.876 101.865ZM316.071 138.228V83.6828H324.167V91.9215H324.735C325.73 89.2226 327.529 87.0327 330.133 85.3518C332.737 83.671 335.673 82.8305 338.94 82.8305C339.555 82.8305 340.325 82.8424 341.248 82.8661C342.171 82.8897 342.87 82.9252 343.343 82.9726V91.4953C343.059 91.4243 342.408 91.3178 341.39 91.1757C340.396 91.01 339.342 90.9271 338.23 90.9271C335.578 90.9271 333.211 91.4835 331.127 92.5962C329.068 93.6852 327.434 95.2003 326.227 97.1416C325.043 99.0592 324.451 101.249 324.451 103.711V138.228H316.071ZM353.278 138.228V83.6828H361.658V138.228H353.278ZM357.539 74.5919C355.905 74.5919 354.497 74.0356 353.313 72.9229C352.153 71.8102 351.573 70.4726 351.573 68.9101C351.573 67.3476 352.153 66.01 353.313 64.8973C354.497 63.7846 355.905 63.2283 357.539 63.2283C359.173 63.2283 360.569 63.7846 361.729 64.8973C362.913 66.01 363.505 67.3476 363.505 68.9101C363.505 70.4726 362.913 71.8102 361.729 72.9229C360.569 74.0356 359.173 74.5919 357.539 74.5919ZM399.167 139.365C394.243 139.365 389.922 138.193 386.206 135.849C382.512 133.505 379.624 130.226 377.541 126.012C375.481 121.798 374.451 116.874 374.451 111.24C374.451 105.558 375.481 100.598 377.541 96.3604C379.624 92.1227 382.512 88.832 386.206 86.4882C389.922 84.1445 394.243 82.9726 399.167 82.9726C404.091 82.9726 408.4 84.1445 412.093 86.4882C415.81 88.832 418.698 92.1227 420.758 96.3604C422.841 100.598 423.883 105.558 423.883 111.24C423.883 116.874 422.841 121.798 420.758 126.012C418.698 130.226 415.81 133.505 412.093 135.849C408.4 138.193 404.091 139.365 399.167 139.365ZM399.167 131.836C402.908 131.836 405.985 130.877 408.4 128.96C410.815 127.042 412.602 124.521 413.762 121.396C414.922 118.271 415.502 114.885 415.502 111.24C415.502 107.594 414.922 104.197 413.762 101.048C412.602 97.8992 410.815 95.3542 408.4 93.4129C405.985 91.4716 402.908 90.501 399.167 90.501C395.427 90.501 392.349 91.4716 389.934 93.4129C387.519 95.3542 385.732 97.8992 384.572 101.048C383.412 104.197 382.832 107.594 382.832 111.24C382.832 114.885 383.412 118.271 384.572 121.396C385.732 124.521 387.519 127.042 389.934 128.96C392.349 130.877 395.427 131.836 399.167 131.836ZM445.057 105.416V138.228H436.676V83.6828H444.773V92.2055H445.483C446.761 89.4357 448.703 87.2103 451.307 85.5294C453.911 83.8249 457.273 82.9726 461.392 82.9726C465.085 82.9726 468.317 83.7302 471.087 85.2453C473.856 86.7368 476.011 89.0095 477.55 92.0635C479.088 95.0938 479.858 98.929 479.858 103.569V138.228H471.477V104.137C471.477 99.8523 470.365 96.5143 468.139 94.1232C465.914 91.7084 462.86 90.501 458.977 90.501C456.302 90.501 453.911 91.081 451.804 92.2411C449.721 93.4011 448.075 95.0938 446.868 97.3192C445.66 99.5446 445.057 102.243 445.057 105.416ZM537.821 83.6828L517.651 138.228H509.128L488.958 83.6828H498.049L513.105 127.149H513.674L528.73 83.6828H537.821ZM548.883 138.228V83.6828H557.264V138.228H548.883ZM553.144 74.5919C551.511 74.5919 550.102 74.0356 548.919 72.9229C547.759 71.8102 547.179 70.4726 547.179 68.9101C547.179 67.3476 547.759 66.01 548.919 64.8973C550.102 63.7846 551.511 63.2283 553.144 63.2283C554.778 63.2283 556.175 63.7846 557.335 64.8973C558.519 66.01 559.11 67.3476 559.11 68.9101C559.11 70.4726 558.519 71.8102 557.335 72.9229C556.175 74.0356 554.778 74.5919 553.144 74.5919ZM572.614 138.228V83.6828H580.71V91.9215H581.278C582.273 89.2226 584.072 87.0327 586.676 85.3518C589.28 83.671 592.216 82.8305 595.483 82.8305C596.098 82.8305 596.868 82.8424 597.791 82.8661C598.714 82.8897 599.413 82.9252 599.886 82.9726V91.4953C599.602 91.4243 598.951 91.3178 597.933 91.1757C596.939 91.01 595.885 90.9271 594.773 90.9271C592.121 90.9271 589.754 91.4835 587.67 92.5962C585.611 93.6852 583.977 95.2003 582.77 97.1416C581.586 99.0592 580.994 101.249 580.994 103.711V138.228H572.614ZM631.03 139.365C625.774 139.365 621.24 138.205 617.429 135.885C613.641 133.541 610.717 130.274 608.658 126.083C606.622 121.869 605.604 116.969 605.604 111.382C605.604 105.795 606.622 100.87 608.658 96.609C610.717 92.3239 613.582 88.9858 617.251 86.5947C620.945 84.18 625.253 82.9726 630.177 82.9726C633.018 82.9726 635.824 83.4461 638.594 84.393C641.364 85.34 643.885 86.8788 646.158 89.0095C648.43 91.1165 650.241 93.9101 651.591 97.3902C652.94 100.87 653.615 105.155 653.615 110.245V113.796H611.57V106.552H645.092C645.092 103.474 644.477 100.728 643.246 98.3135C642.038 95.8987 640.31 93.9929 638.061 92.5962C635.836 91.1994 633.208 90.501 630.177 90.501C626.839 90.501 623.951 91.3296 621.513 92.9868C619.098 94.6203 617.24 96.751 615.937 99.3788C614.635 102.007 613.984 104.824 613.984 107.831V112.66C613.984 116.779 614.695 120.271 616.115 123.136C617.559 125.977 619.56 128.143 622.116 129.635C624.673 131.102 627.644 131.836 631.03 131.836C633.231 131.836 635.22 131.528 636.996 130.913C638.795 130.274 640.346 129.327 641.648 128.072C642.95 126.794 643.956 125.207 644.666 123.313L652.763 125.586C651.91 128.332 650.478 130.747 648.466 132.831C646.454 134.89 643.968 136.5 641.008 137.66C638.049 138.796 634.723 139.365 631.03 139.365ZM671.149 83.6828L684.217 105.984L697.285 83.6828H706.944L689.331 110.956L706.944 138.228H697.285L684.217 117.063L671.149 138.228H661.49L678.819 110.956L661.49 83.6828H671.149Z" fill="white"/>
<defs>
<linearGradient id="paint0_linear_4_114" x1="38.0037" y1="39.5665" x2="173.093" y2="157.466" gradientUnits="userSpaceOnUse">
<stop stop-color="#030407"/>
<stop offset="1" stop-color="#08193E"/>
</linearGradient>
<linearGradient id="paint1_linear_4_114" x1="101.728" y1="6.22827" x2="101.728" y2="197.228" gradientUnits="userSpaceOnUse">
<stop stop-color="#2563EB"/>
<stop offset="1" stop-color="#153885"/>
</linearGradient>
<linearGradient id="paint2_linear_4_114" x1="67.6805" y1="52.7326" x2="149.686" y2="162.973" gradientUnits="userSpaceOnUse">
<stop stop-color="#040812"/>
<stop offset="1" stop-color="#132549"/>
</linearGradient>
<linearGradient id="paint3_linear_4_114" x1="106.335" y1="83.2283" x2="106.335" y2="165.441" gradientUnits="userSpaceOnUse">
<stop stop-color="#FFDA7C"/>
<stop offset="1" stop-color="#B78402"/>
</linearGradient>
</defs>
</svg>
