<svg width="689" height="204" viewBox="0 0 689 204" fill="none" xmlns="http://www.w3.org/2000/svg">
<circle cx="101.728" cy="101.728" r="95.5" fill="white" stroke="url(#paint0_linear_366_550)" stroke-width="12.4565"/>
<path d="M135.66 166.236C135.567 166.308 135.474 166.38 135.38 166.451C116.452 180.913 87.3868 180.913 68.4555 166.455C68.3605 166.382 68.2657 166.309 68.1712 166.236C53.92 155.213 46.0929 138.647 47.4956 122.47C49.2293 102.465 63.8094 85.0945 77.2892 68.4889C87.9569 55.3449 98.5566 41.0611 101.917 25.7435C105.274 41.0611 115.876 55.3449 126.544 68.4889C140.022 85.0944 154.604 102.465 156.338 122.47C157.738 138.647 149.911 155.213 135.66 166.236Z" fill="url(#paint1_linear_366_550)"/>
<path d="M101.947 25.7435C102.832 29.7824 104.219 33.7495 105.978 37.6429C101.2 49.1069 93.0175 59.935 84.7925 70.0765C71.4708 86.4991 57.0615 103.678 55.3481 123.462C53.9619 139.461 61.6977 155.845 75.7817 166.746C75.875 166.819 75.9683 166.891 76.062 166.962C84.0519 173.069 93.869 176.565 103.952 177.455C91.287 177.881 78.4648 174.275 68.4673 166.634C68.3723 166.562 68.2776 166.488 68.1831 166.415C53.9239 155.378 46.0921 138.791 47.4956 122.593C49.2303 102.563 63.8188 85.1701 77.3062 68.5433C87.9798 55.3827 98.5849 41.0805 101.947 25.7435Z" fill="#2563EB"/>
<circle cx="106.295" cy="124.396" r="38.2" stroke="white" stroke-width="5.81304"/>
<circle cx="106.335" cy="124.335" r="38.2" stroke="url(#paint2_linear_366_550)" stroke-width="5.81304"/>
<path d="M120.77 103.228V116.191L119.093 119.642L116.309 105.459C117.331 104.106 118.949 103.228 120.77 103.228Z" fill="#0043FF"/>
<path d="M97.8867 124.375V120.526C97.8867 118.837 98.6322 117.328 99.8107 116.3L102.787 126.996C102.222 126.689 101.62 126.437 100.995 126.251C100.238 125.246 99.1254 124.573 97.8867 124.375Z" fill="#033AD4"/>
<path d="M103.496 114.917V127.417C103.376 127.345 103.31 127.303 103.31 127.303C103.142 127.194 102.967 127.092 102.787 126.996L99.8108 116.3C100.797 115.44 102.084 114.917 103.496 114.917Z" fill="#0043FF"/>
<path d="M107.383 112.184L112.139 126.865V109.541C110.131 109.541 108.375 110.599 107.383 112.184Z" fill="#0043FF"/>
<path d="M93.179 126.323C92.8964 126.707 92.6679 127.14 92.5116 127.609C91.3871 128.409 90.4433 129.449 89.7459 130.651L89.2529 131.499V120.845C89.2529 119.685 89.6076 118.602 90.215 117.706L93.179 126.323Z" fill="#033AD4"/>
<path d="M94.8446 115.253V124.873C94.1832 125.216 93.612 125.715 93.1791 126.322L90.2148 117.707C91.219 116.227 92.9146 115.253 94.8446 115.253Z" fill="#0043FF"/>
<path d="M119.093 119.643V119.649L115.179 127.742V108.82C115.179 107.557 115.606 106.397 116.309 105.459L119.093 119.643Z" fill="#033AD4"/>
<path d="M112.137 126.864V128.89C111.902 128.908 111.668 128.944 111.445 128.992L112.137 126.864Z" fill="#0043FF"/>
<path d="M112.137 126.864L111.445 128.992C110.357 129.238 109.407 129.84 108.728 130.693C108.716 130.687 107.688 130.044 106.527 129.317V115.151C106.527 114.063 106.846 113.047 107.381 112.181L112.137 126.864Z" fill="#033AD4"/>
<path d="M128.947 112.328C128.947 114.084 127.524 115.513 125.763 115.513C125.652 115.513 125.547 115.507 125.436 115.496L118.105 130.657C117.54 131.814 116.709 132.8 115.701 133.559C115.707 133.62 115.713 133.68 115.713 133.736C115.713 135.497 114.284 136.92 112.528 136.92C111.255 136.92 110.164 136.172 109.655 135.098C108.575 134.932 107.534 134.555 106.592 133.963L101.244 130.607C100.9 130.391 100.54 130.214 100.169 130.076C99.7816 131.399 98.5633 132.362 97.1182 132.362C96.0328 132.362 95.0805 131.825 94.5046 130.995C93.9508 131.438 93.4802 131.98 93.1092 132.612L89.7646 138.359L89.0668 139.561L88.0645 141.283C88.3967 141.787 88.5961 142.391 88.5961 143.044C88.5961 143.194 88.585 143.338 88.5629 143.482C88.4964 143.958 88.3248 144.401 88.0645 144.789C87.5052 145.658 86.5252 146.228 85.4121 146.228C83.6511 146.228 82.228 144.8 82.228 143.044C82.228 142.291 82.4883 141.599 82.9258 141.056C83.2249 140.68 83.6068 140.381 84.0389 140.176C84.4542 139.971 84.9193 139.86 85.4123 139.86C85.7057 139.86 85.9881 139.905 86.2595 139.982L87.4555 137.928L89.2053 134.927L91.1988 131.499C91.8855 130.314 92.8435 129.345 93.9787 128.658C94.2278 127.152 95.5346 126 97.1184 126C98.3421 126 99.3998 126.692 99.9369 127.706C100.801 127.905 101.642 128.243 102.418 128.73L107.772 132.086C108.304 132.424 108.885 132.662 109.483 132.811C109.882 131.504 111.095 130.557 112.529 130.557C113.398 130.557 114.184 130.906 114.76 131.471C115.314 130.973 115.779 130.375 116.106 129.688L123.454 114.51C122.917 113.946 122.579 113.176 122.579 112.329C122.579 110.573 124.008 109.145 125.763 109.145C127.524 109.144 128.947 110.573 128.947 112.328Z" fill="white"/>
<path d="M302.398 101.865C302.398 109.535 301.014 116.164 298.244 121.751C295.474 127.338 291.674 131.647 286.845 134.677C282.015 137.707 276.499 139.223 270.296 139.223C264.094 139.223 258.577 137.707 253.748 134.677C248.918 131.647 245.119 127.338 242.349 121.751C239.579 116.164 238.194 109.535 238.194 101.865C238.194 94.1942 239.579 87.5654 242.349 81.9783C245.119 76.3912 248.918 72.0824 253.748 69.0521C258.577 66.0218 264.094 64.5067 270.296 64.5067C276.499 64.5067 282.015 66.0218 286.845 69.0521C291.674 72.0824 295.474 76.3912 298.244 81.9783C301.014 87.5654 302.398 94.1942 302.398 101.865ZM293.876 101.865C293.876 95.5673 292.822 90.2524 290.715 85.92C288.632 81.5876 285.803 78.3088 282.228 76.0834C278.677 73.858 274.7 72.7453 270.296 72.7453C265.893 72.7453 261.904 73.858 258.329 76.0834C254.778 78.3088 251.949 81.5876 249.842 85.92C247.758 90.2524 246.717 95.5673 246.717 101.865C246.717 108.162 247.758 113.477 249.842 117.809C251.949 122.142 254.778 125.421 258.329 127.646C261.904 129.871 265.893 130.984 270.296 130.984C274.7 130.984 278.677 129.871 282.228 127.646C285.803 125.421 288.632 122.142 290.715 117.809C292.822 113.477 293.876 108.162 293.876 101.865ZM316.07 138.228V83.6828H324.167V91.9215H324.735C325.729 89.2226 327.529 87.0327 330.133 85.3518C332.737 83.671 335.673 82.8305 338.94 82.8305C339.555 82.8305 340.325 82.8424 341.248 82.8661C342.171 82.8897 342.87 82.9252 343.343 82.9726V91.4953C343.059 91.4243 342.408 91.3178 341.39 91.1757C340.396 91.01 339.342 90.9271 338.229 90.9271C335.578 90.9271 333.211 91.4835 331.127 92.5962C329.068 93.6852 327.434 95.2003 326.227 97.1416C325.043 99.0592 324.451 101.249 324.451 103.711V138.228H316.07ZM353.277 138.228V83.6828H361.658V138.228H353.277ZM357.539 74.5919C355.905 74.5919 354.497 74.0356 353.313 72.9229C352.153 71.8102 351.573 70.4726 351.573 68.9101C351.573 67.3476 352.153 66.01 353.313 64.8973C354.497 63.7846 355.905 63.2283 357.539 63.2283C359.172 63.2283 360.569 63.7846 361.729 64.8973C362.913 66.01 363.505 67.3476 363.505 68.9101C363.505 70.4726 362.913 71.8102 361.729 72.9229C360.569 74.0356 359.172 74.5919 357.539 74.5919ZM399.167 139.365C394.243 139.365 389.922 138.193 386.205 135.849C382.512 133.505 379.624 130.226 377.541 126.012C375.481 121.798 374.451 116.874 374.451 111.24C374.451 105.558 375.481 100.598 377.541 96.3604C379.624 92.1227 382.512 88.832 386.205 86.4882C389.922 84.1445 394.243 82.9726 399.167 82.9726C404.091 82.9726 408.4 84.1445 412.093 86.4882C415.81 88.832 418.698 92.1227 420.758 96.3604C422.841 100.598 423.883 105.558 423.883 111.24C423.883 116.874 422.841 121.798 420.758 126.012C418.698 130.226 415.81 133.505 412.093 135.849C408.4 138.193 404.091 139.365 399.167 139.365ZM399.167 131.836C402.907 131.836 405.985 130.877 408.4 128.96C410.815 127.042 412.602 124.521 413.762 121.396C414.922 118.271 415.502 114.885 415.502 111.24C415.502 107.594 414.922 104.197 413.762 101.048C412.602 97.8992 410.815 95.3542 408.4 93.4129C405.985 91.4716 402.907 90.501 399.167 90.501C395.426 90.501 392.349 91.4716 389.934 93.4129C387.519 95.3542 385.732 97.8992 384.572 101.048C383.412 104.197 382.832 107.594 382.832 111.24C382.832 114.885 383.412 118.271 384.572 121.396C385.732 124.521 387.519 127.042 389.934 128.96C392.349 130.877 395.426 131.836 399.167 131.836ZM445.057 105.416V138.228H436.676V83.6828H444.772V92.2055H445.483C446.761 89.4357 448.702 87.2103 451.307 85.5294C453.911 83.8249 457.272 82.9726 461.392 82.9726C465.085 82.9726 468.316 83.7302 471.086 85.2453C473.856 86.7368 476.011 89.0095 477.549 92.0635C479.088 95.0938 479.858 98.929 479.858 103.569V138.228H471.477V104.137C471.477 99.8523 470.364 96.5143 468.139 94.1232C465.914 91.7084 462.86 90.501 458.977 90.501C456.302 90.501 453.911 91.081 451.804 92.2411C449.72 93.4011 448.075 95.0938 446.868 97.3192C445.66 99.5446 445.057 102.243 445.057 105.416ZM537.821 83.6828L517.651 138.228H509.128L488.957 83.6828H498.048L513.105 127.149H513.673L528.73 83.6828H537.821ZM548.883 138.228V83.6828H556.979V91.9215H557.548C558.542 89.2226 560.341 87.0327 562.945 85.3518C565.55 83.671 568.485 82.8305 571.752 82.8305C572.368 82.8305 573.137 82.8424 574.06 82.8661C574.984 82.8897 575.682 82.9252 576.156 82.9726V91.4953C575.871 91.4243 575.22 91.3178 574.202 91.1757C573.208 91.01 572.155 90.9271 571.042 90.9271C568.39 90.9271 566.023 91.4835 563.94 92.5962C561.88 93.6852 560.246 95.2003 559.039 97.1416C557.855 99.0592 557.264 101.249 557.264 103.711V138.228H548.883ZM607.299 139.365C602.043 139.365 597.51 138.205 593.698 135.885C589.91 133.541 586.987 130.274 584.927 126.083C582.891 121.869 581.873 116.969 581.873 111.382C581.873 105.795 582.891 100.87 584.927 96.609C586.987 92.3239 589.851 88.9858 593.521 86.5947C597.214 84.18 601.523 82.9726 606.447 82.9726C609.288 82.9726 612.093 83.4461 614.863 84.393C617.633 85.34 620.154 86.8788 622.427 89.0095C624.7 91.1165 626.511 93.9101 627.86 97.3902C629.21 100.87 629.884 105.155 629.884 110.245V113.796H587.839V106.552H621.362C621.362 103.474 620.746 100.728 619.515 98.3135C618.308 95.8987 616.579 93.9929 614.33 92.5962C612.105 91.1994 609.477 90.501 606.447 90.501C603.109 90.501 600.22 91.3296 597.782 92.9868C595.367 94.6203 593.509 96.751 592.207 99.3788C590.905 102.007 590.254 104.824 590.254 107.831V112.66C590.254 116.779 590.964 120.271 592.384 123.136C593.828 125.977 595.829 128.143 598.386 129.635C600.943 131.102 603.914 131.836 607.299 131.836C609.501 131.836 611.489 131.528 613.265 130.913C615.064 130.274 616.615 129.327 617.917 128.072C619.219 126.794 620.225 125.207 620.935 123.313L629.032 125.586C628.18 128.332 626.747 130.747 624.735 132.831C622.723 134.89 620.237 136.5 617.278 137.66C614.318 138.796 610.992 139.365 607.299 139.365ZM647.418 83.6828L660.486 105.984L673.554 83.6828H683.213L665.6 110.956L683.213 138.228H673.554L660.486 117.063L647.418 138.228H637.759L655.088 110.956L637.759 83.6828H647.418Z" fill="white"/>
<defs>
<linearGradient id="paint0_linear_366_550" x1="101.728" y1="6.22827" x2="101.728" y2="197.228" gradientUnits="userSpaceOnUse">
<stop stop-color="#2563EB"/>
<stop offset="1" stop-color="#153885"/>
</linearGradient>
<linearGradient id="paint1_linear_366_550" x1="67.6801" y1="52.7327" x2="149.686" y2="162.973" gradientUnits="userSpaceOnUse">
<stop stop-color="#040812"/>
<stop offset="1" stop-color="#132549"/>
</linearGradient>
<linearGradient id="paint2_linear_366_550" x1="106.335" y1="83.2283" x2="106.335" y2="165.441" gradientUnits="userSpaceOnUse">
<stop stop-color="#FFDA7C"/>
<stop offset="1" stop-color="#B78402"/>
</linearGradient>
</defs>
</svg>
