<svg width="53" height="54" viewBox="0 0 53 54" fill="none" xmlns="http://www.w3.org/2000/svg">
<path fill-rule="evenodd" clip-rule="evenodd" d="M26.3427 42.4276C34.7535 42.4276 41.5718 35.579 41.5718 27.1309C41.5718 18.6827 34.7535 11.8341 26.3427 11.8341C17.9318 11.8341 11.1135 18.6827 11.1135 27.1309C11.1135 35.579 17.9318 42.4276 26.3427 42.4276ZM26.3427 19.3256C27.1837 19.3256 27.8656 20.0104 27.8656 20.8552V26.4796L31.4593 29.9505C32.0656 30.536 32.0845 31.5044 31.5015 32.1133C30.9186 32.7223 29.9545 32.7413 29.3482 32.1558L25.2871 28.2335C24.9885 27.9451 24.8197 27.547 24.8197 27.1309V20.8552C24.8197 20.0104 25.5016 19.3256 26.3427 19.3256Z" fill="#775ADA"/>
<path d="M21.6836 5.36843C22.8913 5.20534 24.4127 5.20539 26.2371 5.20545H26.4482C28.2727 5.20539 29.794 5.20534 31.0017 5.36843C32.2765 5.54058 33.4274 5.91927 34.3523 6.84824C35.2771 7.7772 35.6541 8.93323 35.8255 10.2137C35.8787 10.6107 35.9144 11.0416 35.9385 11.5058C33.1495 9.7741 29.8623 8.7747 26.3427 8.7747C22.823 8.7747 19.5358 9.7741 16.7468 11.5058C16.7709 11.0416 16.8066 10.6107 16.8598 10.2137C17.0312 8.93323 17.4082 7.7772 18.333 6.84824C19.2579 5.91927 20.4088 5.54058 21.6836 5.36843Z" fill="#775ADA"/>
<path d="M34.3523 47.4135C35.2771 46.4845 35.6541 45.3285 35.8255 44.048C35.8787 43.651 35.9144 43.2201 35.9385 42.7559C33.1495 44.4876 29.8623 45.487 26.3427 45.487C22.823 45.487 19.5358 44.4876 16.7468 42.7559C16.7709 43.2201 16.8066 43.651 16.8598 44.048C17.0312 45.3285 17.4082 46.4845 18.333 47.4135C19.2579 48.3424 20.4088 48.7211 21.6836 48.8933C22.8913 49.0564 24.4127 49.0563 26.2371 49.0563H26.4482C28.2726 49.0563 29.794 49.0564 31.0017 48.8933C32.2765 48.7211 33.4274 48.3424 34.3523 47.4135Z" fill="#775ADA"/>
</svg>
