<svg width="587" height="204" viewBox="0 0 587 204" fill="none" xmlns="http://www.w3.org/2000/svg">
<circle cx="101.728" cy="101.728" r="95.5" fill="white" stroke="url(#paint0_linear_366_550)" stroke-width="12.4565"/>
<path d="M135.66 166.236C135.567 166.308 135.474 166.38 135.38 166.451C116.452 180.913 87.3868 180.913 68.4555 166.455C68.3605 166.382 68.2657 166.309 68.1712 166.236C53.92 155.213 46.0929 138.647 47.4956 122.47C49.2293 102.465 63.8094 85.0945 77.2892 68.4889C87.9569 55.3449 98.5566 41.0611 101.917 25.7435C105.274 41.0611 115.876 55.3449 126.544 68.4889C140.022 85.0944 154.604 102.465 156.338 122.47C157.738 138.647 149.911 155.213 135.66 166.236Z" fill="url(#paint1_linear_366_550)"/>
<path d="M101.947 25.7435C102.832 29.7824 104.219 33.7495 105.978 37.6429C101.2 49.1069 93.0175 59.935 84.7925 70.0765C71.4708 86.4991 57.0615 103.678 55.3481 123.462C53.9619 139.461 61.6977 155.844 75.7817 166.746C75.875 166.819 75.9683 166.891 76.062 166.962C84.0519 173.069 93.869 176.565 103.952 177.455C91.287 177.881 78.4648 174.275 68.4673 166.634C68.3723 166.562 68.2776 166.488 68.1831 166.415C53.9239 155.378 46.0921 138.791 47.4956 122.593C49.2303 102.563 63.8188 85.1702 77.3062 68.5433C87.9798 55.3827 98.5849 41.0805 101.947 25.7435Z" fill="#2563EB"/>
<circle cx="106.295" cy="124.396" r="38.2" stroke="white" stroke-width="5.81304"/>
<circle cx="106.335" cy="124.335" r="38.2" stroke="url(#paint2_linear_366_550)" stroke-width="5.81304"/>
<path d="M120.77 103.228V116.191L119.093 119.642L116.309 105.459C117.331 104.106 118.949 103.228 120.77 103.228Z" fill="#0043FF"/>
<path d="M97.8867 124.375V120.526C97.8867 118.837 98.6322 117.328 99.8107 116.3L102.787 126.996C102.222 126.689 101.62 126.437 100.995 126.251C100.238 125.246 99.1254 124.573 97.8867 124.375Z" fill="#033AD4"/>
<path d="M103.496 114.917V127.417C103.376 127.345 103.31 127.303 103.31 127.303C103.142 127.194 102.967 127.092 102.787 126.996L99.8108 116.3C100.797 115.44 102.084 114.917 103.496 114.917Z" fill="#0043FF"/>
<path d="M107.383 112.184L112.139 126.865V109.541C110.131 109.541 108.375 110.599 107.383 112.184Z" fill="#0043FF"/>
<path d="M93.179 126.323C92.8964 126.707 92.6679 127.14 92.5116 127.609C91.3871 128.409 90.4433 129.449 89.7459 130.651L89.2529 131.499V120.845C89.2529 119.685 89.6076 118.602 90.215 117.706L93.179 126.323Z" fill="#033AD4"/>
<path d="M94.8446 115.253V124.873C94.1832 125.216 93.612 125.715 93.1791 126.322L90.2148 117.707C91.219 116.227 92.9146 115.253 94.8446 115.253Z" fill="#0043FF"/>
<path d="M119.093 119.643V119.649L115.179 127.742V108.82C115.179 107.557 115.606 106.397 116.309 105.459L119.093 119.643Z" fill="#033AD4"/>
<path d="M112.137 126.864V128.89C111.902 128.908 111.668 128.944 111.445 128.992L112.137 126.864Z" fill="#0043FF"/>
<path d="M112.137 126.864L111.445 128.992C110.357 129.238 109.407 129.84 108.728 130.693C108.716 130.687 107.688 130.044 106.527 129.317V115.151C106.527 114.063 106.846 113.047 107.381 112.181L112.137 126.864Z" fill="#033AD4"/>
<path d="M128.947 112.328C128.947 114.084 127.524 115.513 125.763 115.513C125.652 115.513 125.547 115.507 125.436 115.496L118.105 130.657C117.54 131.814 116.709 132.8 115.701 133.559C115.707 133.62 115.713 133.68 115.713 133.736C115.713 135.497 114.284 136.92 112.528 136.92C111.255 136.92 110.164 136.172 109.655 135.098C108.575 134.932 107.534 134.555 106.592 133.963L101.243 130.607C100.9 130.391 100.54 130.214 100.169 130.076C99.7816 131.399 98.5633 132.362 97.1182 132.362C96.0328 132.362 95.0805 131.825 94.5046 130.995C93.9508 131.438 93.4802 131.98 93.1092 132.612L89.7646 138.359L89.0668 139.561L88.0645 141.283C88.3967 141.787 88.5961 142.391 88.5961 143.044C88.5961 143.194 88.585 143.338 88.5629 143.482C88.4964 143.958 88.3248 144.401 88.0645 144.789C87.5052 145.658 86.5252 146.228 85.4121 146.228C83.6511 146.228 82.228 144.8 82.228 143.044C82.228 142.291 82.4883 141.599 82.9258 141.056C83.2249 140.68 83.6068 140.381 84.0389 140.176C84.4542 139.971 84.9193 139.86 85.4123 139.86C85.7057 139.86 85.9881 139.905 86.2595 139.982L87.4555 137.928L89.2053 134.927L91.1988 131.499C91.8855 130.314 92.8435 129.345 93.9787 128.658C94.2278 127.152 95.5346 126 97.1184 126C98.3421 126 99.3998 126.692 99.9369 127.706C100.801 127.905 101.642 128.243 102.418 128.73L107.772 132.086C108.304 132.424 108.885 132.662 109.483 132.811C109.882 131.504 111.095 130.557 112.529 130.557C113.398 130.557 114.184 130.906 114.76 131.471C115.314 130.973 115.779 130.375 116.106 129.688L123.454 114.51C122.917 113.946 122.579 113.176 122.579 112.329C122.579 110.573 124.008 109.145 125.763 109.145C127.524 109.144 128.947 110.573 128.947 112.328Z" fill="white"/>
<path d="M244.018 65.501L265.609 126.723H266.461L288.052 65.501H297.285L270.58 138.228H261.489L234.785 65.501H244.018ZM324.558 139.365C319.633 139.365 315.313 138.193 311.596 135.849C307.903 133.505 305.014 130.226 302.931 126.012C300.871 121.798 299.842 116.874 299.842 111.24C299.842 105.558 300.871 100.598 302.931 96.3604C305.014 92.1227 307.903 88.832 311.596 86.4882C315.313 84.1445 319.633 82.9726 324.558 82.9726C329.482 82.9726 333.791 84.1445 337.484 86.4882C341.201 88.832 344.089 92.1227 346.148 96.3604C348.232 100.598 349.273 105.558 349.273 111.24C349.273 116.874 348.232 121.798 346.148 126.012C344.089 130.226 341.201 133.505 337.484 135.849C333.791 138.193 329.482 139.365 324.558 139.365ZM324.558 131.836C328.298 131.836 331.376 130.877 333.791 128.96C336.205 127.042 337.993 124.521 339.153 121.396C340.313 118.271 340.893 114.885 340.893 111.24C340.893 107.594 340.313 104.197 339.153 101.048C337.993 97.8992 336.205 95.3542 333.791 93.4129C331.376 91.4716 328.298 90.501 324.558 90.501C320.817 90.501 317.739 91.4716 315.325 93.4129C312.91 95.3542 311.122 97.8992 309.962 101.048C308.802 104.197 308.222 107.594 308.222 111.24C308.222 114.885 308.802 118.271 309.962 121.396C311.122 124.521 312.91 127.042 315.325 128.96C317.739 130.877 320.817 131.836 324.558 131.836ZM362.066 138.228V83.6828H370.163V91.9215H370.731C371.726 89.2226 373.525 87.0327 376.129 85.3518C378.733 83.671 381.669 82.8305 384.936 82.8305C385.551 82.8305 386.321 82.8424 387.244 82.8661C388.167 82.8897 388.866 82.9252 389.339 82.9726V91.4953C389.055 91.4243 388.404 91.3178 387.386 91.1757C386.392 91.01 385.338 90.9271 384.226 90.9271C381.574 90.9271 379.207 91.4835 377.123 92.5962C375.064 93.6852 373.43 95.2003 372.223 97.1416C371.039 99.0592 370.447 101.249 370.447 103.711V138.228H362.066ZM399.273 138.228V83.6828H407.654V138.228H399.273ZM403.535 74.5919C401.901 74.5919 400.493 74.0356 399.309 72.9229C398.149 71.8102 397.569 70.4726 397.569 68.9101C397.569 67.3476 398.149 66.01 399.309 64.8973C400.493 63.7846 401.901 63.2283 403.535 63.2283C405.168 63.2283 406.565 63.7846 407.725 64.8973C408.909 66.01 409.501 67.3476 409.501 68.9101C409.501 70.4726 408.909 71.8102 407.725 72.9229C406.565 74.0356 405.168 74.5919 403.535 74.5919ZM445.873 139.365C440.618 139.365 436.084 138.205 432.272 135.885C428.485 133.541 425.561 130.274 423.501 126.083C421.465 121.869 420.447 116.969 420.447 111.382C420.447 105.795 421.465 100.87 423.501 96.609C425.561 92.3239 428.425 88.9858 432.095 86.5947C435.788 84.18 440.097 82.9726 445.021 82.9726C447.862 82.9726 450.667 83.4461 453.437 84.393C456.207 85.34 458.728 86.8788 461.001 89.0095C463.274 91.1165 465.085 93.9101 466.434 97.3902C467.784 100.87 468.458 105.155 468.458 110.245V113.796H426.413V106.552H459.936C459.936 103.474 459.32 100.728 458.089 98.3135C456.882 95.8987 455.154 93.9929 452.905 92.5962C450.679 91.1994 448.051 90.501 445.021 90.501C441.683 90.501 438.795 91.3296 436.356 92.9868C433.941 94.6203 432.083 96.751 430.781 99.3788C429.479 102.007 428.828 104.824 428.828 107.831V112.66C428.828 116.779 429.538 120.271 430.958 123.136C432.403 125.977 434.403 128.143 436.96 129.635C439.517 131.102 442.488 131.836 445.873 131.836C448.075 131.836 450.064 131.528 451.839 130.913C453.638 130.274 455.189 129.327 456.491 128.072C457.793 126.794 458.799 125.207 459.51 123.313L467.606 125.586C466.754 128.332 465.322 130.747 463.309 132.831C461.297 134.89 458.811 136.5 455.852 137.66C452.893 138.796 449.566 139.365 445.873 139.365ZM489.588 105.416V138.228H481.207V83.6828H489.304V92.2055H490.014C491.292 89.4357 493.234 87.2103 495.838 85.5294C498.442 83.8249 501.804 82.9726 505.923 82.9726C509.616 82.9726 512.848 83.7302 515.618 85.2453C518.387 86.7368 520.542 89.0095 522.081 92.0635C523.619 95.0938 524.389 98.929 524.389 103.569V138.228H516.008V104.137C516.008 99.8523 514.896 96.5143 512.67 94.1232C510.445 91.7084 507.391 90.501 503.508 90.501C500.833 90.501 498.442 91.081 496.335 92.2411C494.252 93.4011 492.606 95.0938 491.399 97.3192C490.191 99.5446 489.588 102.243 489.588 105.416ZM545.953 83.6828L559.021 105.984L572.09 83.6828H581.749L564.135 110.956L581.749 138.228H572.09L559.021 117.063L545.953 138.228H536.294L553.624 110.956L536.294 83.6828H545.953Z" fill="white"/>
<defs>
<linearGradient id="paint0_linear_366_550" x1="101.728" y1="6.22827" x2="101.728" y2="197.228" gradientUnits="userSpaceOnUse">
<stop stop-color="#2563EB"/>
<stop offset="1" stop-color="#153885"/>
</linearGradient>
<linearGradient id="paint1_linear_366_550" x1="67.6801" y1="52.7327" x2="149.686" y2="162.973" gradientUnits="userSpaceOnUse">
<stop stop-color="#040812"/>
<stop offset="1" stop-color="#132549"/>
</linearGradient>
<linearGradient id="paint2_linear_366_550" x1="106.335" y1="83.2283" x2="106.335" y2="165.441" gradientUnits="userSpaceOnUse">
<stop stop-color="#FFDA7C"/>
<stop offset="1" stop-color="#B78402"/>
</linearGradient>
</defs>
</svg>
